<?xml version="1.0" standalone="no"?>
<!DOCTYPE svg PUBLIC "-//W3C//DTD SVG 1.1//EN" "http://www.w3.org/Graphics/SVG/1.1/DTD/svg11.dtd" >
<svg xmlns="http://www.w3.org/2000/svg">
<metadata></metadata>
<defs>
<font id="perdido_demoregular" horiz-adv-x="1000" >
<font-face units-per-em="1000" ascent="800" descent="-200" />
<missing-glyph horiz-adv-x="244" />
<glyph unicode="&#xd;" horiz-adv-x="244" />
<glyph unicode=" "  horiz-adv-x="244" />
<glyph unicode="&#x09;" horiz-adv-x="244" />
<glyph unicode="&#xa0;" horiz-adv-x="244" />
<glyph unicode="!" />
<glyph unicode="&#x22;" />
<glyph unicode="#" />
<glyph unicode="$" />
<glyph unicode="%" />
<glyph unicode="&#x26;" />
<glyph unicode="'" />
<glyph unicode="(" />
<glyph unicode=")" />
<glyph unicode="*" />
<glyph unicode="+" />
<glyph unicode="," />
<glyph unicode="-" />
<glyph unicode="." />
<glyph unicode="/" />
<glyph unicode="0" />
<glyph unicode="1" />
<glyph unicode="2" />
<glyph unicode="3" />
<glyph unicode="4" />
<glyph unicode="5" />
<glyph unicode="6" />
<glyph unicode="7" />
<glyph unicode="8" />
<glyph unicode="9" />
<glyph unicode=":" />
<glyph unicode=";" />
<glyph unicode="&#x3c;" />
<glyph unicode="=" />
<glyph unicode="&#x3e;" />
<glyph unicode="?" />
<glyph unicode="@" horiz-adv-x="327" />
<glyph unicode="A" horiz-adv-x="590" d="M431 765h8h-8zM346 773v0v0zM333 773v0v0zM320 772l-10 2zM484 707q-8 -2 -80 -2h-58q-101 0 -152 4q-10 -4 -36 -3q-35 1 -39 1v46q0 13 2 27h14q36 0 75 -25q15 8 31.5 16.5t29.5 8.5h64q18 0 59 -23q36 24 83 22h7v-72zM321 701h8h-8zM361 575h-4h4zM159 761v0v0z M313 701q-129 -7 -117 -7l-78 1zM146 763v-1v1zM483 573l-64 -10q2 -14 9 -40q-29 3 -88 7q-4 16 -16 47h-21q-35 2 -41 -45q-14 0 -41.5 1.5t-40.5 2.5q-3 3 3 25q-12 6 -32 8l-32 4v116h364v-116zM299 590v-1v1zM433 412l22 1zM446 407h7h-7zM439 422l-11 1zM455 392l-7 4 zM429 415v-1v1zM396 427l18 2zM417 412v-1v1zM380 437v-1v1zM241 574v-1v1zM372 426v-1v1zM452 345h-6h6zM476 311h8h-8zM479 304v-1v1zM408 372v-1v1zM423 344l14 2zM468 306h-9h9zM185 569l-3 4zM566 200l-26 2zM414 343h-9h9zM450 296l-10 2zM544 210h-40l-2 7l-11 -2 l7 -5h-35h-34q-21 0 -42 2q22 10 38 22l-25 102h28h52q2 -11 9 -32l-7 -1q11 -9 21 -52q7 -35 41 -41zM511 217v-1v1zM510 383q-8 -9 -27 -27q-54 -6 -65 -6h-52q-145 0 -249 6q-4 0 -24 16l38 40q22 25 27 47l16 1l-16 1l2 8l44 -8q7 2 23 5l15 -8l-15 -2l13 -5l-4 -17 l-26 1h-8q6 -4 32 -5q-3 -8 -7 -25q18 0 67 -1q42 -2 66 -2q7 0 35 6l-12 6l-9 -4l-11 41q9 1 27 4q-22 7 -31 6l-5 17l7 1l-7 5q29 -1 25 -2q21 -8 60 -2v-14l-16 1q-3 0 -21 -2q10 -4 40 -3q1 -24 25 -46q22 -16 43 -33zM355 344h22h-22zM441 261h-4h4zM480 215h-13h13z M223 462v-1v1zM352 344l-33 3zM558 123v-1v1zM247 479q-6 -9 -48 -9q-28 0 -37 6zM218 458l-4 3zM226 442v-1v1zM490 171v-1v1zM207 451l-8 4zM303 344v-1v1zM471 178l-8 1zM188 459h-4h4zM187 442v-1v1zM300 344l-36 3zM221 405v-1v1zM498 138l-35 2zM175 442l-11 1z M162 450v-1v1zM437 176l-11 3zM164 437v-1v1zM401 178v-1v1zM488 79h17h-17zM574 138l-35 1q-10 0 -25 -2q40 -7 60 1v-25q-14 0 -22 -1l18 -7l-5 -2l9 -4v-98h-33q-29 0 -45 6l-42 18q-37 -25 -86 -24l-29 1l17 2q-4 7 -23 1v90l6 1l-6 1v30l17 -1l11 3l-4 6q-8 2 -18 -2 l-7 2v58h84l-7 7l8 2l2 -7q15 2 37 2t56 -2q48 -3 57 -4zM480 58l14 2zM375 152v-1v1zM457 57l-11 3zM366 142l-8 2zM434 78l-21 1zM373 128l-4 3zM376 111l6 1zM437 57l-22 3zM370 112l-12 1zM202 337q-1 -14 -12.5 -42.5t-11.5 -43.5q0 -14 17 -25h-6q-34 3 -100 2 q11 37 36 111h11zM372 35v-1v1zM114 292v-1v1zM260 119v0v0zM240 129v-1v1zM264 94l4 1zM232 130l-9 1zM233 116v-1v1zM265 89h-30h30zM195 134l-11 2zM86 214l-7 2zM80 211h10h-10zM174 103l-12 1zM270 11h-10q-11 0 -31.5 -2.5t-30.5 -2.5q-18 0 -50 19q-44 -24 -59 -24 h-56l-5 2q0 14 6 26t6 13l-12 32l10 1l-10 3v117q37 27 92 27q7 0 100 -12l-14 -1q21 -5 64 -14v-62l-14 -3l14 -3v-108l-10 2l-15 -7q2 -7 25 -3zM265 2l-16 1zM234 20l-11 1zM187 60v-1v1zM201 14v-1v1zM50 155v-1v1zM190 13v-1v1zM76 84l-10 1zM61 84l-9 1zM65 75l-22 3z M52 62l-18 6zM390 428h-8l2 -5zM222 88h-113l-21 -6z" />
<glyph unicode="B" horiz-adv-x="492" d="M307 775l-6 3zM305 763l-6 2zM224 781h6h-6zM214 774h6h-6zM438 707q-80 2 -240 11q-11 -3 -19 -3q-12 0 -21 4l-5 -3q-13 5 -48 5q-56 -1 -52 -1l-22 1v62l18 1q33 1 73 -25q31 24 70 24h160q28 0 56 -24t30 -52zM199 773v0v0zM187 772l-9 2zM439 694h-70q-57 0 -170 2 t-168 2v14q210 -5 408 -18zM362 573l5 1zM392 517v-1v1zM180 688l34 3zM423 467l-12 1zM401 477l-6 3zM438 537q-40 -2 -48 -2q-19 0 -33 3q-3 10 -15 21.5t-22 11.5h-129v-19l-19 1l1 4h-58l-58 21l6 1l-6 2l18 4q-7 2 -19 1q-16 -3 -19 -2h-5v101q8 -4 24 -4q9 0 27.5 1.5 t27.5 1.5q-26 4 -43 4q-4 0 -17 -0.5t-20 0.5h84q11 -6 36 -6q13 0 39 3.5t39 3.5h164q3 0 22 -2q12 -2 23 1v-151zM410 430h7h-7zM251 585h10h-10zM390 441l11 3zM369 463l-6 1zM372 454v0v0zM137 688v-1v1zM229 586v-1v1zM210 585l4 1zM360 432l6 1zM177 582l-47 3z M471 230l-17 -4q-11 0 -31.5 1.5t-29.5 1.5q2 12 2 35q0 54 -15 77q23 -2 47 -4q31 -2 44 4v-111zM191 511l-6 1zM109 584l-13 1zM177 512l-10 4zM187 500l-6 3zM175 499l-6 1zM191 492l-12 -4q-6 0 -16.5 3.5t-15.5 3.5q-6 0 -12 -2l-8 4l-2 -7h-16v24l13 3l-8 5l11 1 q9 0 37 -16h-16h-16q0 -6 27 -10q17 -3 34 -5zM141 489l6 3zM458 354l-95 2q-13 5 -41 16h-131v-143q-54 7 -82 7v115q-18 15 -55 45q19 20 38 39q22 25 17 50q23 -3 82 -3v-55h88q38 0 55 12t32 14l-11 1q4 12 4 22q30 4 55 4h24l-1 -10l-11 1l9 -9l-11 -2l9 -1l-3 -9 q0 -9 -12 -23q-10 -9 -20 -19q1 -1 33 -23q19 -12 27 -31zM462 134l-11 2zM441 103l-12 1zM454 60v-1v1zM317 155v-1v1zM249 185v0v0zM403 15l27 2zM288 141v-1v1zM231 196v-1v1zM342 84l-9 1zM274 141v-1v1zM328 84l-11 1zM334 75l-24 3zM189 186l20 3zM178 209v-1v1z M319 62l-19 6zM305 75l-15 1zM196 173l-6 3zM471 88q-10 0 -30.5 1t-30.5 1q-33 0 -55 -6q22 -5 57 -2l58 4l1 -10q0 -24 -24.5 -51t-48.5 -27q-6 0 -13 4t-11 4l-3 -3l-186 -2q-6 0 -29 11q-27 12 -32 13q-44 -25 -74 -24h-17v198q79 4 76 26q27 -3 82 -5v-21h159 q25 23 52 23q7 0 69 -7v-127zM262 70h36h-36zM164 186l-11 4zM273 75l-15 3zM168 173l-8 3zM157 177l-8 2zM246 77l-11 1zM162 155v-1v1zM250 70h-10h10zM168 142l-6 3zM296 9l-8 1zM284 14l-6 1zM98 184v-1v1zM235 23v-1v1zM87 159l6 1zM216 23l-10 1zM76 153v-1v1zM62 153 v-1v1zM146 69h-22h22zM102 99v-1v1zM48 150l-7 2zM54 32l-10 1z" />
<glyph unicode="C" horiz-adv-x="500" d="M357 688v1v-1zM255 777v-1v1zM258 763l-6 2zM291 689v1v-1zM470 497h-36q14 12 18 1l8 8l-17 4l14 14l12 -2zM438 510h-7h7zM365 582l-9 3zM247 689l6 2zM245 700h-10h10zM436 505l-15 -6l-26 1l-1 13zM470 696q-14 4 -24 4q-32 0 -95 -3t-95 -3q10 -10 36 -10l16 2 l-14 2l24 1l34 -1l-16 -2q32 -5 75 -5q32 0 54 3q-32 5 -43 5l-38 -1l85 -2v-127q-16 3 -41 2q-40 -2 -41 -2q-7 0 -16 8.5t-14 10.5q-9 2 -48 1l18 4q-4 3 -18 3h-20.5h-23.5l21 -4q-5 -3 -48 -3t-59.5 -19.5t-13.5 -62.5h-74v183q27 0 76 1q54 2 77 2l2 10l-17 1l-13 7 q-40 -8 -91 -8q-18 0 -33 2q1 34 30 61t64 27h135q20 0 69 -39q3 18 0 39h80v-62q-37 0 -96 -1q-72 -2 -96 -2q-9 5 -19 5q-14 0 -14 -11q18 -5 76 -5q16 0 48 4t47 4q8 0 25 -3q15 3 24 3zM246 583l16 3zM161 646h10h-10zM193 604v-1v1zM204 583v-1v1zM145 583l15 1z M151 570l-6 3zM117 584l-9 3zM473 236q-1 0 -76 6q2 22 0 44h76v-50zM115 573h8h-8zM113 574l-7 4zM116 552v0v0zM451 184v1v-1zM131 503h-16h16zM442 159l5 1zM186 414v-1v1zM436 153l-6 1zM165 447q-11 6 -52 6l-9 -1l-15 1l9 3l-9 3v12l56 1l20 -1v-24zM118 462h10h-10z M182 396v-1v1zM416 153v1v-1zM187 378l-10 2zM455 99v1v-1zM402 150l-7 2zM155 396l-10 2zM161 381v0v0zM164 351v-1v1zM145 352h15h-15zM293 180v1v-1zM304 171l-11 1zM298 166v1v-1zM151 315l-8 3zM221 399q-8 -8 -25 -20q-29 -36 -29 -62q-23 -1 -69 -7l8 1l-1 -11l17 2 v-9l4 5l39 -3v-26q-1 -38 14 -57q-11 0 -30 -2q-22 -2 -31 -2q-14 0 -27 3v91l8 -1q-8 11 -8 34l-2 13q-6 3 -29 23l16 1l-7 -6q20 -3 30 -3q12 0 35 3t33 3q-18 8 -51 7q-39 -1 -53 2l-1 -2l-5 -1q-1 3 -8 5.5t-5 6.5l-7 5q14 12 46 29l-17 1l11 8q6 15 25 15q44 0 37 -1 q-18 -1 -52 -9l24 -1q9 -1 25 2.5t23 3.5q13 0 29 -16h-6l-12 -4l-8 3l-18 -3q34 -5 49 2zM295 166l-20 6zM54 390v-1v1zM127 317v-1v1zM408 32l-10 1zM156 276v-1v1zM258 173h-9h9zM115 307l4 1zM100 319v-1v1zM130 289l-11 1zM142 257h9h-9zM109 294v-1v1zM473 75 q-29 -74 -49 -74h-275q-26 18 -35 29.5t-22 40.5q-2 -14 -3 -42v45q22 0 62.5 -1t58.5 -1q-2 7 -76 7q-32 0 -44 4q37 -1 109 7q-1 0 -41 3q-33 2 -34 8l-7 3q-4 -1 -10.5 -5.5t-11.5 -4.5l-4 2l-1 6q1 29 1 89q17 1 50 1l31 -1q3 -8 23 -14q17 -6 28 -6q23 0 23 19v4l-11 2 q16 3 41 1q37 -2 42 -2q49 0 74 36q30 -6 81 -6v-150zM204 198l-24 2zM221 143l24 2zM201 157l-8 3zM339 15v1v-1zM160 199l-29 1zM123 194l-6 1zM269 43l-14 1zM197 110l-11 1zM153 116l52 2zM133 143l18 1zM244 31v1v-1zM122 144v0v0zM156 111v-1v1zM113 144v0v0zM223 34 v-1v1zM221 39l-8 1zM103 144l-10 1zM427 585h-45l-6 -8q-6 -1 23 -1q6 0 28 9zM231 156q-8 5 -21 9l-3 -9q8 2 24 0zM149 115q-15 3 -36 3h-8q6 -9 18 -9q3 0 26 6z" />
<glyph unicode="D" horiz-adv-x="528" d="M437 760l-17 6zM385 778v1v-1zM396 766v1v-1zM403 755v1v-1zM380 776h-14h14zM372 764v1v-1zM369 763l-7 1zM333 771v1v-1zM322 772l-8 3zM309 772h-6h6zM371 707l-11 3zM333 731v1v-1zM322 729l-5 3zM294 745v1v-1zM333 697v1v-1zM269 748l5 1zM488 709q-28 2 -85 4h-11 l-9 -6l-6 2l7 4q-159 -2 -263 -2q-31 0 -55 7l-7 -9q-15 5 -23 8v73h17q35 2 76 -25q41 25 84 25h164q5 0 10.5 -7t10.5 -7l8 5h4q24 0 67 -52l-27 1q-13 0 -25 -4q18 -1 35 -3q25 -4 28 -14zM249 737l22 3zM381 616v1v-1zM244 730v1v-1zM236 732l3 1zM214 749v1v-1z M222 737l7 3zM349 615l-10 3zM185 755v1v-1zM196 749h-10h10zM208 732v-2v2zM171 761l-7 3zM323 601v1v-1zM301 613l14 1zM194 731l-14 1zM163 749v1v-1zM156 747l-6 3zM164 732l3 1zM178 723l-14 3zM142 751v1v-1zM268 616v1v-1zM463 423l-9 1zM116 756l-4 5zM462 412l-4 1 zM131 737v1v-1zM224 641v1v-1zM155 711l-5 3zM501 500h-75q0 29 -10 51q-13 28 -39 28h-175v-79q-16 7 -41 4l-42 -4q4 11 4 22q0 30 -26.5 45.5t-57.5 12.5v57l1 12q154 6 461 22v-171zM493 360v1v-1zM118 738l-13 1zM501 302l-7 -1l6 -1v-11l-5 5q-1 6 -24 7h-28l-18 1 v181h76v-181zM124 727l-7 1zM110 727l-7 3zM206 615l-4 7zM146 675v1v-1zM113 673l-7 3zM65 703l25 1zM97 673h-21h21zM459 307l-27 2zM40 699l15 7zM65 670l5 1zM457 282l-7 1zM120 615l-5 3zM40 688l8 1zM451 278v1v-1zM491 243l-24 4zM501 234q-10 -1 -31 -6t-32 -5 l-18 2q6 25 5 59l15 2q8 0 23.5 -3t22.5 -4l-10 -2q7 -2 25 1v-44zM201 494h-80h80zM181 426v1v-1zM445 157h-13h13zM165 425v1v-1zM501 128q-22 -4 -51 -4q-36 0 -82 6l14 -4l18 3q-12 4 -23 5q29 2 66 2h56zM410 145l-6 3zM256 402q-16 -19 -54 -56v-47q-15 2 -21 2 q2 0 -58 -8l1 18q2 44 -59 80q18 17 36.5 35.5t18.5 40.5q0 5 -1 11q12 0 36.5 2t36.5 2h10l-3 -17q0 -19 21 -36q18 -14 36 -27zM414 130v1v-1zM188 351v1v-1zM394 146v1v-1zM403 128v1v-1zM370 153v1v-1zM380 144l-25 2zM350 145v1v-1zM335 145l-5 5zM127 351v1v-1z M336 139v1v-1zM501 149h-13q-12 0 -58 -7l6 5q11 0 -86 -6l10 -5q-2 -1 -5 0v-12q-52 -4 -156 -2.5t-155 -3.5v76q68 6 75 15q4 5 4 73q26 0 79 -2v-86q36 3 89 2q93 -2 90 -2q23 25 43 25q23 0 77 -10v-60zM174 304l-15 1zM446 34l-24 3zM296 150l5 1zM322 129l-28 8z M167 288h-43h43zM264 171l-19 2zM293 127l-6 5zM246 176l-6 1zM255 150v1v-1zM227 173l3 1zM252 148l-5 4zM271 131l-26 3zM295 89l-5 3zM233 137l3 1zM500 116l2 -10q0 -29 -38.5 -69t-66.5 -40q-158 0 -196 2q-12 1 -33 10t-30 9q-10 0 -29.5 -5t-29.5 -5q-7 0 -18.5 3 t-16.5 3v98l10 -1q28 0 85 3t85 3q31 0 92.5 -3t92.5 -3q51 0 91 5zM322 10l-14 3zM295 31v1v-1zM181 134v0v0zM171 134l2 3zM162 144h-23h23zM129 137v1v-1zM95 164v1v-1zM119 144h-18h18zM146 83l3 1zM217 7v1v-1zM149 26l-8 2zM107 8q-17 -11 -51 -10h-12v10l30 2 q6 0 17.5 -1t15.5 -1zM414 765l-8 3l2 -7zM414 736q-25 -1 -65 0q-53 1 -66 1q10 -2 29 -7l-16 -1q14 0 42 -6q4 4 76 13zM355 762q10 1 -46 1t-85 -6zM296 724q-16 9 -25 9q-35 0 -90 -12q38 -1 115 3zM335 135l-2 10q-9 -4 -38 -2q26 -8 37 -8h3zM286 137l-8 4l8 6l-18 4 q-3 -8 -25 -4q16 -10 33 -10h6h4z" />
<glyph unicode="E" horiz-adv-x="483" d="M389 650h9h-9zM421 608v-1v1zM431 587v-1v1zM463 541l-6 2zM465 710l-3 -9q-33 -3 -57 -3q-63 0 -189 5t-188 5v82q60 -4 91 -26q48 24 71 27q-1 -1 85 -1q57 0 97 -28q46 26 71 26q11 0 22 -3v-75zM344 588l-9 2zM226 657h9h-9zM240 619l-13 2zM464 507h-76v76l-7 2l6 3 l-10 5l-7 -9h-178v-70q-35 6 -83 5q-2 17 -2 35v10h10l13 1q-85 19 -100 19v107q113 1 227 1q174 0 207 -8v-177zM54 768v-1v1zM382 398l-7 2zM348 457l-49 -2q9 1 26 4q-17 4 -52 8q6 1 27 4q16 3 27 3q17 0 21 -17zM280 477l-4 2zM305 432l-6 2zM308 422l-50 2zM278 416 l-10 3zM190 500l-23 1zM464 221q-3 -1 -33 -7q-13 4 -22 2l5 -3q-10 1 -26 -1v77h76v-68zM281 393v-1v1zM432 230v-1v1zM464 199l-15 2zM288 368v-1v1zM269 389l-6 1zM153 500v-1v1zM327 321v-1v1zM243 390v-1v1zM228 400v-1v1zM407 403l-28 -29q-5 5 -94 5q-3 0 -8 2.5 t-7 2.5q-8 0 -26 -4q49 -8 59 -6l-7 -7q15 -2 38 0q32 3 38 3q-15 -18 -34 -53h-4q-19 1 -56 1l-4 49q-6 2 -48 2l-33 -1l-2 -17q-6 0 -13 1v0q-32 1 -64 1q-32 6 -55 38q2 3 29 29q18 17 23 33q14 -3 41 -11l5 1q-3 9 -20 12l-24 2l7 2l-9 4l12 3l-10 6q-3 0 78 0v-12l-8 4 l-17 -4q3 -6 25 -1v-13l-7 -1l7 -2v-13h82l1 13q11 4 33 4h24q15 -1 24 -1q-23 0 -41 -8q-4 0 43 0q13 0 25 -14l-11 -1q13 -4 36 -20zM432 198l-24 3zM175 446l-10 3zM156 459l-7 3zM224 398l-24 4zM154 478l-44 2zM143 463l-13 2zM217 385l-7 3zM186 396l-6 1zM421 159v-1 v1zM119 445v-1v1zM160 401v0v0zM153 395h10h-10zM135 418v-1v1zM135 408v-1v1zM350 195l-7 1zM169 373v-1v1zM143 390l-4 3zM423 110l-10 1zM129 401l-7 1zM431 117h-52h52zM377 144h-17h17zM142 370v-1v1zM89 408h-2h2zM349 145v-1v1zM383 110v0v0zM104 387v-1v1zM340 145 v-1v1zM451 33v-1v1zM448 39h-8h8zM156 342l-30 1zM330 145h-10h10zM74 393v-1v1zM73 394l-6 3zM323 116l-8 3zM191 213h-69h-9v121l19 1h9q5 0 25 -1h25v-121zM245 184h-15h15zM278 118l-34 4zM251 98v-1v1zM464 0q-11 -2 -22 -2q-30 0 -66 25q-49 -31 -121 -31 q-68 0 -125 29q-29 -23 -69 -23q-13 0 -26 2v131q8 5 23 3q27 -2 23 -2l12 2q-42 8 -57 1v57q15 3 41 0l1 6l-9 2q-17 1 144 1q32 0 94.5 -5t92.5 -5q0 -8 27 -13.5t37 -3.5v-26l-19 -4q4 -3 9 -2q9 1 10 1v-143zM305 55l-43 1zM240 94l-6 1zM242 76l-4 3zM125 139l-13 3z M155 99l4 1zM181 82l-16 1zM151 91v-1v1zM150 97l-17 4zM100 130l9 6zM108 99v-1v1zM69 123v-1v1zM118 71l-17 1zM87 99l-15 3zM258 389l-10 2l-6 -8q5 3 16 6zM459 156q-6 4 -21 9l-3 -8q7 2 24 -1zM377 115q-16 3 -45 3q6 -9 18 -9q3 0 27 6zM436 72q-41 0 -120 11 q31 0 112 8h-33q-47 0 -53 8l9 5q-26 -10 -64 -10q-7 0 -74 4l-8 4q-10 -6 -22 -10q9 -3 44 -5q29 -1 40 -9l-16 -2q62 2 185 -4zM218 121l-19 6l5 -5l-5 -5h8q7 0 11 4zM192 125q-8 6 -24 8q-24 3 -25 3q6 4 20.5 1.5t19.5 1.5q-7 3 -18 3q-31 0 -45 -8q7 -2 19 -9 q-8 -3 -26 -9l11 -1q13 0 28 6l-5 5l14 5q5 0 15 -3t16 -3zM143 109q-6 1 -23.5 3.5t-26.5 2.5q-8 0 -33 -4q43 -6 65 -6q10 0 18 4z" />
<glyph unicode="F" horiz-adv-x="443" d="M391 768l-6 2zM298 779v-1v1zM285 777v-1v1zM272 777l-9 2zM444 715q-116 14 -436 11v66q1 0 46 -9q28 -5 43 -17q14 3 60 20q16 6 95 6q62 0 102 -30q38 26 71 26q5 0 19 -1v-72zM264 692l34 3zM443 519v-1v1zM430 523l-6 -7l-11 4q11 1 17 3zM444 701q-57 1 -158 -1 q-113 -1 -159 -1h-119v12q29 0 88 4t89 4q50 0 130 -7q105 -9 129 -11zM408 522v-1v1zM336 588v-1v1zM403 522l-5 2zM221 693v-1v1zM314 590v-1v1zM298 589h-3h3zM444 541h-35q-26 -1 -41 10q0 10 -2 29h-191l-2 -16l-64 -1q-26 0 -71 20l20 4q-6 3 -18 3q-22 0 -28 -10l5 8 l-7 4l-2 99q11 -2 29 0l-20 3q41 0 64 -1l-16 -2q29 -5 63 -5q23 0 67 3q-33 5 -44 4l-37 -1h85q9 -5 35 -5q14 0 41 3t41 3h128v-152zM260 586l-46 3zM86 693v-1v1zM194 587l-15 2zM93 585l-7 4zM167 512l-7 2zM173 498l-9 -2l6 11zM143 503l22 4zM149 506v-1v1zM165 484 v-1v1zM119 543h-18l7 -5h-19q2 7 12 7zM280 353v-1v1zM128 508l-13 2zM110 503l-20 3zM123 486l-18 2zM399 405q-26 -30 -54 -55q-1 -5 -12 -34h-64l1 26l-1 26h-97v-125l-11 -2q-11 0 -34 1t-35 1q0 13 1.5 39.5t1.5 39.5q0 21 -21 41q-19 14 -37 29q36 37 38 40 q20 25 16 49q14 -1 30 -1q23 0 43 2q-6 3 -18 6l9 1l-9 4q20 -8 24 -3q3 -7 1 -60h94q0 -1 0 53h64q6 -23 29 -44q21 -17 41 -34zM90 488h11h-11zM125 449l12 2zM129 360v-1v1zM241 177l-8 3zM107 299l-6 2zM109 293v-1v1zM181 184v-1v1zM176 160h-5h5zM161 154h5h-5z M145 154v-1v1zM229 68h-21h21zM185 99v-1v1zM132 150l-7 2zM248 0h-54q-18 0 -60 24q-4 -1 -30 -14q-19 -10 -33 -10h-56v165l5 3l-5 15v18h6q66 -1 73 31h6q-4 0 71 -6q4 -12 33 -19.5t44 -5.5v-12h-11l9 -2l-3 -12q6 -8 4 -20l4 -10l-3 -4v-141zM21 181v-1v1zM22 172h9h-9 zM137 31l-10 1zM68 14v-1v1zM159 588q-19 -3 -48 1l-6 -9q-6 0 25 0z" />
<glyph unicode="G" horiz-adv-x="506" d="M426 778v1v-1zM366 729l-10 1zM343 733v1v-1zM316 761l-5 1zM322 770l-50 4zM289 777l-8 2zM444 607v1v-1zM370 686l-16 3zM278 762v1v-1zM473 718q4 0 -51 0h-58q-37 0 -135 3q-86 3 -136 2q13 5 38 12l-7 2q3 1 25 3q15 1 22 9l-7 3l-17 -3l10 -2q-58 -5 -60 -5 q31 53 161 53q60 0 74 -4q21 -5 63 -37l4 14l7 4q7 -4 18 -4l17 2q-6 9 -45 1v22h77v-14l-21 -3q12 -2 21 -1v-23h-63q-10 0 -30.5 3.5t-31.5 2.5l-22 -2q12 -8 50 -7l-111 1q-19 0 -42 -2q3 -7 36 -4q-28 -3 -83 -7h17q21 0 63 -3t62 -3q10 0 17 3l-24 5h17q48 4 145 8v-29 zM273 762h-10h10zM433 587v1v-1zM361 650l-5 1zM390 617l-5 3zM282 715l9 1zM238 760v1v-1zM403 605l-20 2zM355 638v1v-1zM273 714l-12 2zM246 728v1v-1zM353 613l8 4zM235 726h-5h5zM217 749h-17h17zM347 604l11 2zM253 711l-19 1zM410 543l-9 2zM302 633v1v-1zM178 746 l12 3zM233 695l-5 2zM149 774l-5 3zM280 634v1v-1zM269 641v1v-1zM246 690l-65 4zM291 609v1v-1zM167 732l-5 3zM473 509q-14 -1 -32 -1t-45 1l1 16q2 35 -36 62h-151q-25 0 -35 -31q-8 -22 -6 -50l-26 -1l-53 1v165l220 16q-7 4 -20 4t-18 1q33 0 100.5 1t100.5 1v-52 q0 -140 0 -133zM130 749v1v-1zM234 641l7 1zM144 726l12 4zM165 694v1v-1zM136 725l-19 5zM167 714l-74 4zM470 339v1v-1zM113 627l27 1zM461 285l10 1zM477 259l-2 4zM98 634v1v-1zM420 310v1v-1zM480 331l-185 -14v48h185v-13l-9 4l-19 -3q1 -1 17 -7q12 -5 12 -12z M480 241q-39 4 -76 0l-2 10q53 -3 78 0v-10zM480 280q-21 3 -25 3l-50 -11v32h-106q60 7 181 19v-43zM399 206v0v0zM455 137l4 1zM379 183v1v-1zM360 194v1v-1zM372 185l-12 1zM372 174l-5 1zM350 179v0v0zM468 58l3 1zM221 404q-18 -20 -36 -39q-20 -24 -16 -48l-16 -2 l16 -3q-9 -1 -28 -2l6 4q-7 4 -25 3q-30 -2 -26 -2h-4q0 33 -58 76q20 18 40 36.5t20 41.5q0 8 -2 16q37 6 77 6v-45zM339 181l-4 3zM432 60l5 1zM311 180h-23h23zM482 149q-70 -5 -190 -8q-140 -3 -190 -6l2 2h-12v15l10 3l-10 -1v13l7 1l-7 1v52q20 -6 39 -6q20 0 43 6 q12 -25 41 -25h133q13 0 28.5 12t21.5 25q28 0 82 4v-9v-27l-7 -1l7 -8q-14 -4 -37 -2q-34 2 -38 1h-18q18 -16 41 -9l18 -2l-14 -1l11 -2q12 0 37 10l-4 -15l-8 8l-9 -8q-71 -2 -213 -11h236v-12zM70 374v1v-1zM382 60v1v-1zM136 307l-8 3zM258 179v0v0zM359 53l-10 3z M93 306l16 2zM169 262q-5 -10 -35 -15l-42 -4v33l77 6v-6l-11 -13zM169 230q-15 0 -39 -2q-30 -3 -38 -3v12q25 3 77 7v-14zM178 175l14 1zM482 78q-32 -80 -55 -80h-275l-21 15l7 1q-15 5 -30.5 25t-15.5 35v48q74 9 195 13q154 5 195 8v-65zM150 198l-30 2zM163 175h-12 h12zM118 200v1v-1zM103 198v1v-1zM102 196l-7 3zM233 37l-8 3zM217 38v1v-1zM201 38h-7h7zM155 35l35 2zM190 16l-5 3zM175 18v1v-1zM245 161q-37 -1 -73 -2q-42 -1 -71 -9q20 5 36 5l-8 -3z" />
<glyph unicode="H" horiz-adv-x="650" d="M602 771v1v-1zM587 737l22 3zM586 749v1v-1zM582 730v1v-1zM574 732l4 1zM560 737l7 3zM523 755v1v-1zM534 749h-10h10zM546 732v-2v2zM509 763l-7 1zM521 742v1v-1zM518 732h14h-14zM494 749l-13 3zM503 731v1v-1zM614 757l-7 -7l7 -3v-14q-31 -2 -92 -10l92 -2v-10 h-116q-8 6 -25 6q-9 0 -26.5 -2t-23.5 -2q-8 0 -19 5l-7 -9q-2 11 -39 6v15l9 3l-9 4v51h62q14 0 37 -12t33 -14q29 26 79 26h45v-27l-20 1q-18 0 -32 -5q-5 0 52 0zM514 723l-12 3zM606 616v1v-1zM455 758l-5 2zM464 737l4 1zM561 641v0v0zM488 712l3 1zM443 739h13h-13z M462 727h-5h5zM447 727l-6 3zM422 737v1v-1zM545 615l-5 3zM453 675l-8 1zM403 703l23 1zM436 672q-8 1 -25 0l19 6zM393 706q-17 -8 -25 -7h-7q18 4 27 4zM403 670l5 1zM458 617l-4 1zM373 688l14 1zM614 590q-70 -8 -74.5 -13t-10.5 -73q-7 0 -21.5 -2t-22.5 -2h-58v64 q-31 27 -68 23v54q50 15 126 17h129v-68zM373 649v1v-1zM371 637l-4 3zM284 689l7 2zM529 486h-102q10 5 21 7v0q27 -2 81 3v-10zM292 699q9 0 -45 -4l5 8q13 -1 40 -4zM270 692v-3v3zM281 678l-6 2zM266 691l-7 1zM519 426v1v-1zM257 676l9 2zM287 646v1v-1zM237 698l-8 3z M505 425v1v-1zM291 711q-21 -4 -68.5 -3.5t-71.5 -4.5l7 2l-7 1l18 6q-105 3 -120 -1v75l49 2q23 0 38 -7q17 -10 34 -19l34 18q14 8 40 7l47 -1v-75zM252 685q-9 -9 -21.5 -11.5t-25.5 -4.5l6 1q-6 11 -35 9q9 0 18 11l-6 3l-1 -5q-18 1 -18 9q7 0 20 3t20 3q7 -15 14 -5 l-4 -2q9 -2 10 -2l12 3l4 -7h-5q-13 0 -21 -4q5 -7 33 -1zM170 710v1v-1zM138 743l-9 3zM171 680l-4 1zM220 605l46 1zM170 686l-23 6zM152 688v1v-1zM110 706l17 1zM465 351v1v-1zM120 685l13 1zM497 305h15h-15zM197 605l-10 1zM115 686h-32q4 6 18 7h11zM392 393v1v-1z M408 369v1v-1zM106 706q-9 0 -26.5 -2.5t-25.5 -2.5q18 -11 26 -9l-14 -7l-17 1v21q6 -5 22 -3q24 4 23 4zM603 171l-20 2zM578 177h6h-6zM437 303l18 1zM291 589q-69 -2 -65 -83h-31q-23 -1 -64 2q3 11 3 22q0 33 -28 49q-23 13 -57 11v14l16 2l-16 6v19q11 -3 102 -3 q20 0 55 3q41 3 56 4l-8 3q13 0 37 6v-55zM593 150v1v-1zM565 173l4 1zM590 150l-5 2zM124 651q-5 -1 -72 -5l-1 -4l-2 15h14q19 0 50 -3l-7 -3h18zM609 133l-26 1zM319 406l-4 3zM582 393q-38 -29 -40 -30q-17 -17 -17 -39q0 -10 4 -23q-24 -3 -74 -8q6 -5 25 -5q31 0 27 1 q-12 -4 -33 -4l-37 1l-9 4l-1 73h-208l-11 -8l-18 8l-5 -6q28 -9 36 -7q4 -12 4 -23l-19 2l-6 -4q4 -8 16 -4q-22 -5 -58 -4l5 -5l-19 -3l-7 2q2 -5 18 -5q12 0 23 -3l-13 -8q33 -11 61 -1v-10l-51 -2q-21 0 -43 6q15 0 24 4q-6 4 -23 7v17h3q1 0 22 5q-8 7 -25 5q0 10 4 23 q-3 2 -58 42l36 34q23 23 18 42h92q0 -9 -1 -25q-2 -19 -2 -26q11 -8 167 -4l5 -3l2 6h30v60q34 1 101 7l-1 -11q0 -21 20 -44zM571 137l3 1zM98 607h-8h8zM323 369l-12 4zM614 195l-1 -44q-6 -3 -28 -5l6 -5q24 -1 24 -15l-2 -4q-48 5 -56 5q-27 0 -81 -5t-81 -5 q-14 0 -37 5v73q18 5 36 9.5t33 17.5v60q66 -4 102 0q4 -35 4 -69q14 -7 41 -13.5t40 -4.5zM206 500l-73 3zM226 494l-1 -15q-24 -4 -59 -4h-17h-16l-2 18q31 -5 95 1zM519 134v0v0zM509 134l2 3zM500 144h-21h21zM467 137v1v-1zM433 164v1v-1zM458 137v1v-1zM457 144h-18 h18zM172 400v1v-1zM484 83l4 1zM167 395l9 1zM555 7v1v-1zM152 398l17 1zM614 0q-22 -2 -36 -2q-39 0 -91 25q-11 -12 -56 -11l-58 2q10 -6 28 -7h31l23 -1q-14 -8 -40 -8q-7 0 -26.5 1t-30.5 1v15l11 2l-11 2v88q68 6 66 6h190v-113zM385 162h-16h16zM168 346l25 1z M129 392l-9 3zM189 322v1v-1zM479 28h8h-8zM190 327l-16 1zM372 138l-10 1zM224 299h-39h39zM199 267v1v-1zM279 179v1v-1zM210 239h-12h12zM190 259l-23 3zM237 193h-14h14zM199 220v1v-1zM183 209l45 1zM210 198v1v-1zM170 234l-5 1zM272 110l19 3zM189 159l85 3zM174 197 l15 4zM220 146l3 1zM291 136l-16 1l16 -3v-15q-13 -3 -41 -7l7 -6q-30 -10 -81 -11q-68 -2 -82 -4l5 6l-6 1l-7 -6h-37q13 0 32 5q-9 2 -32 0v68l14 3q-6 4 -15 5l11 4l-10 1l2 7l-2 10q7 0 22 -3t23 -3l5 1l-7 7q19 -1 28.5 14.5t7.5 34.5h4q15 0 26 -3q-9 0 -27 -1l13 -2 q-2 0 52 9l-12 1q-14 0 -21 -6q-5 5 -35 4l2 18q32 4 97 9l-2 -18q0 -53 66 -62v-59zM193 135v1v-1zM213 111h-21h21zM174 134l-9 3zM132 144v1v-1zM141 136l-12 3zM122 143l-7 3zM68 183v1v-1zM217 18v1v-1zM67 135l40 1zM291 0q-22 -2 -36 -2q-53 0 -85 25 q-30 -26 -72 -25l-49 2v75l8 1l10 -5l2 7q74 6 222 20v-98zM58 137v1v-1zM162 605h-3q-11 8 -28 8q-16 0 -21 -8q12 2 52 0zM156 356l-8 7l-6 -7h14zM158 143h-10l-2 -8h10z" />
<glyph unicode="I" horiz-adv-x="325" d="M277 781v1v-1zM267 777l-21 2zM270 762v1v-1zM285 751h-8h8zM253 770l-5 1zM254 763l-8 3zM239 771l7 1zM234 766v1v-1zM233 761h9h-9zM225 763l-12 3zM222 757v1v-1zM216 759v1v-1zM207 764v1v-1zM228 733l10 1zM209 737v1v-1zM186 734h12h-12zM184 737v1v-1zM287 719 q-9 -8 -44 -8q-40 1 -50 -4q-13 4 -83 6q-7 -5 -18 -5l-8 1l7 3q-7 5 -22 3l-22 -4l-3 5l6 11q18 1 36 1q22 2 36 8q-48 10 -77 0v23q11 1 19 3l-17 -1q-3 9 -3 18l1 5q12 3 30 3l26 -1l7 -10l5 5q25 -7 28 -8q16 -5 25 -14q32 28 86 28q16 0 35 -3v-42q-11 -1 -34 -4 q-9 -7 -22 -8q-8 -1 -22 0q-19 1 -23 1q-24 0 -54 -5q47 -8 155 -7zM270 631v1v-1zM144 762l-17 4zM265 628h-8h8zM121 761l-8 7zM103 766v1v-1zM110 755v1v-1zM87 776h-14h14zM79 764v1v-1zM69 765h7h-7zM78 709l-10 1zM287 669q1 2 1 -20q0 -14 -8 -19l7 -1v-42 q-69 -16 -71 -18q-6 -6 -12 -69h-79q4 10 4 20q0 29 -28 49q-25 17 -56 18v30l6 -1h6l-13 3q0 25 2 39q3 0 98 9q59 6 99 6q28 0 44 -4zM88 616v1v-1zM80 605l4 2zM168 423h-7h7zM165 413h5h-5zM200 360v1v-1zM259 402q-57 -47 -57 -88q0 -8 2 -17l-8 2v0q-10 3 -33.5 1.5 t-35.5 1.5l1 13q0 37 -55 76q10 14 19 18q13 14 25 27.5t12 30.5q0 7 -2 16h77l-1 -15q0 -19 20 -38zM201 292l3 1zM140 309h26h-26zM159 278v1v-1zM198 244l-24 3zM273 149h10h-10zM208 234q-24 -10 -48 -10q-43 0 -43 32q0 12 9 30q9 -2 36 -1l-6 -2q4 1 40 -4l-13 -2 q3 -5 23 -2q0 -28 2 -41zM287 159l-10 -6q10 -7 10 -18v-2q6 1 -25 1q-6 0 -17 -3.5t-16 -4.5l-8 5q-27 -7 -64 -7q-26 0 -82 6l13 -4l18 2l-22 6q20 3 49 2q52 -2 50 -2q24 0 36 6q11 -2 19 -2l10 1q-12 2 -20 2q13 0 40 3q-18 7 -42 7q-12 0 -37.5 -5t-39.5 -4h-12l6 5 q11 0 -86 -6l11 -5q-2 -1 -6 0v-12h-17v14l6 1l-7 1v54q15 1 46 15q28 12 47 12q30 0 76 -11q63 -15 74 -16v-30h-10zM152 157h-12h12zM119 147l-8 1zM121 130v1v-1zM110 128v1v-1zM78 153v1v-1zM287 -2h-62q-24 0 -58 24l-18 -6q-3 -6 -33 -16l-7 1l-5 -3h-59v115l61 -1 q81 -2 181 10v-124zM87 144l-23 4zM57 145v1v-1zM153 35l-24 2z" />
<glyph unicode="J" horiz-adv-x="477" d="M410 708v1v-1zM446 642l-7 2zM410 668v1v-1zM403 661l20 1zM403 668v1v-1zM448 703h-39h-9v15q-9 5 -31 3q-35 -3 -33 -3h-56l-9 4q-9 -3 -33 -1q-23 1 -33 4q14 2 44 9l-24 5l49 -1q25 0 63 4q54 6 63 6l-1 4h-90q-9 0 -27.5 3t-28.5 3l-13 -1q10 -6 50 -9l-74 -1l-12 4 v19h12l18 1q-7 2 -28 1l-2 12q5 3 28 3q29 0 71 -12l-8 -2q15 -8 34 -8q16 0 26 8l-9 -2q29 15 41 15h61v-70l-10 1q-5 0 -20 -3q1 -3 14.5 -4.5t15.5 -6.5zM383 652v1v-1zM415 604l-13 4zM272 730h8h-8zM257 733v1v-1zM225 763h5h-5zM358 607v1v-1zM284 687l-16 2zM347 587 v1v-1zM448 686l-18 -2l-3 -3l7 -4q-8 -1 -23 -3q14 -7 27 -9l-7 -4q5 -2 16 -9q-23 -2 -35 3l-2 -3h-10v-23l11 -5q6 0 18 2.5t17 3.5l1 -5q-1 4 -4 -19l-13 2l-10 -3q7 -1 26 -1v-17q-28 1 -54 -17.5t-26 -45.5q0 -8 3 -16q-25 2 -86 1l4 17q0 26 -30 45q-26 17 -53 16 l-1 11l6 11l-5 1v75h4l15 2q-8 0 -19 7q115 -2 128 -2q62 0 96 7q5 -4 18 1zM304 619l-5 1zM315 605l-18 2zM269 638v1v-1zM267 613l8 4zM261 606h8h-8zM315 545h8h-8zM216 633v1v-1zM403 391v-5v5zM422 398l-17 -5l9 -1q-1 -1 -30 -19l7 -5q-10 -9 -23 -17q-3 -16 -3 -22 q-45 -3 -76 -7q0 21 -20 38q-31 27 -33 29q51 46 51 87q0 9 -2 18h6q24 1 76 -5q-2 -12 -2 -20q0 -22 19 -41q2 -1 38 -30zM309 401v1v-1zM297 363l-7 1zM334 310v1v-1zM365 282q-26 -6 -77 -16v14l9 3l-8 1v27q26 1 76 12v-41zM366 250q-7 -8 -57 -8h-21q6 9 30 9 q6 0 24 -1h24zM313 206v0v0zM293 183v1v-1zM274 194v1v-1zM274 186h12h-12zM281 176h5h-5zM264 179v0v0zM253 183l-4 1zM346 60l7 1zM225 180h-23h23zM366 177q-38 -6 -102 -9q-76 -4 -103 -7q28 -1 75 0q57 1 74 1q26 0 55 -3v-15h-153q-97 0 -174 -9l7 19q12 -2 26 -2 q9 0 87 7h-120v40l14 -2l13 3q-5 5 -27 1v4q-1 13 26 17q16 3 36 2h25q11 -18 54 -27l2 -3l6 3q50 0 58 2q33 6 44 34l51 1l25 -1v-42q4 0 -48 0q-11 0 -20 -2q12 -2 23 -5q16 -4 23 -1l15 -3l-12 -1q8 -2 20 -2zM296 60v1v-1zM172 179v0v0zM76 263l14 5zM115 256l-7 -2 l7 -6q-12 6 -37 4l-40 -4v30l77 7q-1 -4 -13 -6q-15 -2 -17 -3q7 -2 30 0v-1l-5 -10zM129 209h-10h10zM263 57h14h-14zM142 179v0v0zM121 230q12 0 -68 0q-10 0 -15 8q23 7 58 6h19zM113 176l-3 5zM92 175l14 1zM366 78q0 -14 -24 -46t-37 -33h-69q-54 -1 -64 3 q-16 -8 -37 -8q-37 0 -67 22.5t-30 56.5v52q109 4 328 15v-62zM67 175l12 1zM145 39l-6 1zM131 38v1v-1zM115 38h-7h7zM69 35l35 2zM104 17l-5 2zM89 18v1v-1zM400 774l-3 9q-14 -5 -33 -9h36z" />
<glyph unicode="K" horiz-adv-x="547" d="M519 733v1v-1zM514 735h-3h3zM497 740l6 3zM460 758v1v-1zM470 752h-9h9zM483 735v-2v2zM446 764l-8 4zM458 745v1v-1zM469 734l-15 1zM431 750l-13 5zM440 735v0v0zM451 727l-13 1zM529 754l-7 -2l7 -1v-10l-7 -1l7 -11q-40 1 -38 1q-27 0 -36 -6l71 1l3 -11h-94 q-7 6 -22 6q-9 0 -25.5 -2t-21.5 -2q-16 0 -25 5l-7 -9q-4 10 -30 6v71l11 1q18 1 50.5 -11t49.5 -12t49.5 12t50.5 11l14 -1v-28l-12 3l-18 -4q17 -1 30 -6zM392 759l-7 5zM406 740v1v-1zM430 714l-7 3zM393 741l-15 1zM398 730l-6 1zM385 730l-9 3zM421 678v1v-1zM481 619 l-4 2zM388 676l-8 3zM340 706l22 1zM373 675q-8 1 -25 0l19 6zM330 709q-13 -7 -21 -7l-5 1q13 4 21 4zM340 674h5h-5zM395 618l-6 4zM310 691l13 1zM529 593l-6 1q-33 0 -62 -28t-24 -61h-34h-48v58q-25 28 -41 28q-4 0 -7 -1q-3 8 -3 31v14l6 6l-6 6q73 16 181 15l44 -1 v-68zM310 652v1v-1zM255 691v1v-1zM263 693l-14 -6l3 4q-7 0 -20 1q9 2 20 2zM249 677v1v-1zM221 692l6 2zM239 700q-14 2 -55 -2l5 9q1 0 26 -1q15 0 24 -6zM207 694v-2v2zM219 680l-8 3zM266 714q-59 1 -178 -8l7 2l-7 1l18 6q-21 1 -41 3q-25 2 -41 -4v77h58q29 0 63 -27 q47 27 59 27h62v-77zM203 694l-9 1zM434 489l-78 2zM194 679l8 2zM224 649v1v-1zM257 609v0v0zM239 609v0v0zM188 688q-11 -9 -46 -16l6 2q-5 10 -35 8l18 6l-7 5l-6 -1l-12 8q8 -1 23 2t22 3l3 -6q7 1 14 -5l7 5l-9 5q6 1 14 -11h-5q-11 0 -20 -4q4 -8 33 -1zM107 713v1v-1 zM77 743l-12 7zM109 682l-6 3zM155 608l47 1zM107 689l-22 3zM47 709l16 1zM404 355v0v0zM332 427h-4h4zM57 688l12 1zM334 415l-6 1zM42 708h-17h17zM136 608l-15 1zM52 689l-29 2q5 6 18 6l8 -1zM329 396v1v-1zM266 593l-10 1q-30 0 -45 -28q-12 -24 -10 -55q-6 -2 -34 -2 q-19 0 -26 -4q-27 -1 -37 -1q25 0 33 4q-8 3 -33 1q3 10 3 18q0 29 -26.5 48.5t-56.5 19.5v39q3 -4 13 -2q15 3 14 3q4 0 11 -3t11 -3q20 0 59.5 3t58.5 3l9 3l-7 3q31 1 73 10v-58zM530 196h-8h8zM345 373v0v0zM361 354l-10 3zM61 654l-18 -2q-13 0 -20 7h27l-7 -5h18z M521 179l-8 1zM374 306l15 1zM505 177h-3h3zM527 151l-6 4zM163 504v1v-1zM257 410l-7 3zM246 418v1v-1zM365 293v1v-1zM509 142v1v-1zM226 419v1v-1zM33 611l-4 3zM535 138l-16 -2h15v-11q-44 4 -50 4q-16 0 -55 -4q-35 -4 -55 -3l-28 1v158q23 2 42 2t37 -2l-1 -18 q0 -40 15 -55q12 -11 41 -11q8 0 26 1t29 1v-21l-15 -1l14 -4q1 -7 -2 -22q-17 -2 -11 -2l7 -6l-2 -2zM201 484q-9 -1 -42 -4q-26 -2 -43 -2h-8l-2 16q13 0 37 2t36 2q17 0 22 -4v-10zM433 483v-10q1 -19 -21 -42q-18 -18 -35 -37q49 -24 48 -77v-17q-11 0 -33 -3 q2 -4 33 -8q-67 2 -79 0q0 57 -17.5 73t-74.5 16l-55 -1l-1 -10l-42 -1l-10 -8l-17 8l-7 -6q17 -10 36 -10t41 11v-34q-14 3 -30 3t-32 -3q4 -7 16 -3q-15 -2 -22 -2q-16 0 -21 8h4l14 1l-18 1v16h5l14 1q-30 15 -70 51l32 32q18 21 17 39q31 0 91 5v-21q-1 -14 -1 -21 q12 1 35.5 -1.5t34.5 -2.5q64 0 87 48q26 1 78 5zM213 419l-10 1zM456 137v1v-1zM446 137l2 2zM435 147l-21 2zM196 359l-7 3zM404 140v1v-1zM370 167v1v-1zM393 147h-19h19zM109 403v1v-1zM424 87h-3h3zM102 398l10 1zM492 11v0v0zM535 3h-114l-14 8l7 3l-5 -1 q-29 0 -48 30q-16 25 -16 56l1 15q185 6 175 6l14 -6v-111zM89 401l16 1zM105 390v1v-1zM126 325v1v-1zM177 302h-55h55zM424 29l-10 2zM203 285q-14 1 -37 0q-28 -1 -37 -1q-11 0 -19 10h91zM428 13l-12 2zM111 301l2 4zM136 270v1v-1zM185 213v1v-1zM216 182v1v-1z M137 243l9 1zM251 138h-10h10zM235 140v1v-1zM162 194l11 1zM229 138l-17 2zM136 223v1v-1zM120 212l44 1zM147 201v1v-1zM126 162l84 3zM266 120q-17 -3 -51 -6h-4q15 5 26 5l-10 4q-13 -3 -40 -8l7 -5q-30 -11 -81 -12q-67 -1 -82 -3l5 5h-12v41l13 -2l10 1q-8 2 -24 5v46 l13 2l-7 7q35 16 104 52q-8 2 -23 -1v11h5l13 1q-6 1 -17 5q5 1 13.5 5.5t13.5 4.5h63v-5q0 -24 16 -47q18 -27 41 -27q4 0 8 1v-80zM111 200l15 4zM159 150h-3h3zM130 138v1v-1zM149 114h-20h20zM111 138l-10 3zM69 147v1v-1zM78 140h-15h15zM59 147l-9 3zM266 1 q-34 -3 -42 -3q-46 0 -79 26q-27 -25 -76 -25q-9 0 -23 1q-17 1 -23 1v84q61 4 122 9q73 5 121 16v-109zM154 21v1v-1zM101 608h-4q-19 9 -37 9l-13 -1l8 -8q2 5 46 0zM95 146h-10l-2 -8h10z" />
<glyph unicode="L" horiz-adv-x="436" d="M251 781l-17 1zM242 772l-6 3zM244 764l-10 5zM231 775h-3h3zM224 769v1v-1zM231 763l-10 1zM197 783v1v-1zM215 764l-14 5zM213 760v1v-1zM206 763v0v0zM197 767v1v-1zM218 736l9 1zM199 740v1v-1zM187 736l-13 2zM253 787v-44h-2q-24 -10 -57 -12q12 1 -58 1l-14 -3 q36 -4 88 -4q2 -1 32 -2h9l2 -9q-40 1 -71 -4q-16 6 -43 6q-47 0 -39 0q-7 -5 -20 -5l-7 1l8 3q-24 -2 -72 1v12q7 -2 19 -2h5l5 6l6 -6l8 3l-7 2h34q19 2 32 8q-40 12 -102 1v24q19 -2 23 -2q11 0 22 3q3 0 -45 0v12l10 -1l-10 3v10h58q15 0 60 -24q8 0 33 8l-11 1 q10 5 27 8l-7 1q17 6 47 6q13 0 37 -2zM110 765l-8 6zM92 769v1v-1zM100 758v1v-1zM76 779l-13 3zM69 767v1v-1zM65 766l-8 1zM29 774v1v-1zM67 710l-11 3zM29 735v0v0zM19 732l-8 3zM29 700v1v-1zM253 586q-30 -1 -55 -16q-31 -17 -31 -45q0 -10 5 -22h-84q0 50 -14.5 64.5 t-64.5 16.5l-1 21l4 13q-5 6 -3 42q35 0 109 8t112 8h23v-43l-8 -1l8 -1v-45zM78 619v1v-1zM72 609v1v-1zM422 262h-10h10zM374 279l46 1zM437 255q-10 -4 -21 -4q-8 0 -23 4t-23 4l-10 -4v10l20 5q-13 -1 -20 -3v18q74 5 77 5v-35zM400 268v1v-1zM44 617l-10 5zM404 255 l-8 3zM437 232q-60 1 -75 -1l-2 16h77v-15zM20 604v1v-1zM416 212h-11h11zM429 182v1v-1zM159 426h-8h8zM159 415l-6 1zM380 178l13 1zM354 178l12 1zM223 407q-51 -44 -51 -83q0 -10 2 -20q-9 0 -27 -2.5t-27 -2.5q-11 0 -32 9h3q12 0 22 2q-5 5 -25 3q3 11 3 20 q0 19 -19 36q-17 12 -35 25q38 39 56 77l-5 14h84l-1 -15q0 -20 17 -37q3 -2 35 -26zM84 410l-7 3zM71 418v1v-1zM433 40l-8 3zM418 41v1v-1zM293 156l10 1zM155 310l-27 2zM402 41h-6h6zM280 165l-14 3zM152 285l-6 2zM148 281v1v-1zM272 150l-11 1zM356 38l35 2zM392 19 l-7 3zM437 165q-9 -1 -26 -1h-33q-59 -1 -76 -10l6 -2q4 0 28 7l-7 -4q13 -2 21 -2q17 0 43 3q36 4 44 5v-16q-14 0 -134 -7l-6 2l-2 -6l-26 1q-9 0 -26 -2.5t-24 -3.5l-8 5q-27 -7 -65 -7q-25 0 -82 6l14 -4l17 3l-22 7l163 2l-17 3q2 0 38 3q-18 7 -40 7q-13 0 -40 -4.5 t-41 -4.5h-10l7 6q10 -1 -87 -7l11 -5q-2 -1 -6 0l1 -12q-12 0 -38 -4l5 10l-5 6l11 -2l7 2l-2 8l-7 -1l-9 1v51q11 2 36 14t39 12q43 0 103 -6q10 -1 29.5 -10t31.5 -9h107v21q23 7 77 9v-64zM377 21v1v-1zM179 233q-25 -8 -40 -8q-10 0 -29 3t-27 4q1 18 3 55q38 2 44 2 q27 0 44 -6q4 -16 4 -32l-16 -1q1 -1 11 -5q7 -3 7 -8zM141 160h-12h12zM436 3q-10 -4 -22 -4q-31 0 -68 27q-43 -32 -124 -32q-73 0 -110 28q-51 -23 -73 -23q-12 0 -25 4q3 9 0 113q67 0 203 9t205 9h14v-131zM107 148l-8 4zM110 133v1v-1zM67 156v1v-1zM76 147l-24 2z M47 148v1v-1zM31 148l-6 5zM33 142v1v-1zM143 37l-26 3zM148 19l-11 1zM299 171q-4 0 -10 5t-11 4h-5l15 -3v-9zM286 149l-8 3l2 7l-14 -2q7 -2 20 -8z" />
<glyph unicode="M" horiz-adv-x="765" d="M750 687l5 -2v-95q-13 -1 -33 -1l5 -3q-9 -1 -23 -9q-19 -10 -22 -12l-11 3l-8 -4q7 -1 -48 -1q-16 0 -34 13h18l-10 6l19 1q-10 7 -18 7q-7 0 -25 -1h-26v-3l20 -2v-6l-2 -14q-18 4 -29 3h-8q-3 -8 -3 -20l1 -7l14 -3l9 2h10l-1 -13l-23 -7l19 -4q-3 -6 -3 -20 q-48 5 -81 1l16 86l4 2l15 100h22l2 13l-20 2l16 84q20 2 34 2q50 0 81 -25q12 3 39 16q19 9 47 9q16 0 37 -2v-57h-93q-136 0 -145 -13q34 -1 102 -5q22 8 75 8q11 0 31 -1.5t30 -1.5v-14q-10 1 -25 1l-204 -1q22 -19 66 -10l-8 1h6h16l-10 -1q68 -7 95 -7t59 5zM748 687 l-9 2h6zM644 541l6 -4h-46q9 5 40 4zM641 500l-13 3q14 3 26 -1l1 -1zM602 498v8h3l14 -5q-2 0 -17 -3zM674 351v-110h-81l5 103l20 6l-10 7l-7 -5q1 10 1 126q18 -5 72 1v-18q0 -10 -20 -21l16 5q8 0 60 -39q-3 -3 -56 -55zM254 704q-40 0 -114 2q-80 2 -114 2v77h58 q11 0 34.5 -9.5t30.5 -17.5q32 27 83 27q13 0 32 -2l15 -79h-25zM503 313q-62 4 -77 1q2 19 13 55v3q0 -10 6 44h7q12 0 24 2q-4 9 -29 7l2 11q24 2 66 2l8 6q-4 1 -60 2l-11 1q0 5 4 25q21 -1 63 -6q5 22 20 22l-7 -8l7 -5q-7 -23 -7 -31q0 -24 32 -42l-39 -39 q-21 -25 -22 -50zM236 513q-5 37 -16 75q-42 -26 -39 -69l-10 -1q-3 0 -62 6l-2 32h26q-35 15 -107 35v95h258l35 -178zM265 460q-11 0 -17 8q15 0 62 -2q-36 -6 -45 -6zM720 -2q-52 0 -85 25q-43 -25 -93 -25q-14 0 -30 2l2 139l10 2l-10 4q0 8 3.5 23.5t3.5 24.5h-1 q61 8 73 34q28 1 83 -2q5 -11 36 -22q25 -10 43 -12q0 7 0 -191q-21 -2 -35 -2zM477 213l-16 3l-11 -2l4 -2q-9 0 -25 -1.5t-23 -1.5q2 14 7 41l17 3l-15 4q2 12 7 37l39 1q12 0 33 -8q-1 -50 -17 -74zM343 307q5 -5 17 -9l19 -88h-25h-16h-35l-21 94h12q-5 5 -14 10l-5 25 l12 1l-65 50q32 35 30 55l-1 -1q64 -7 81 -1l2 -17q-1 -1 -23 -2l-10 -1v-13l7 8q2 -1 30 0l6 -38l-15 -2q-14 5 -18 5q-6 0 -30 -6q56 -9 62 -8l-6 -6l11 -1q1 -5 4 -19t3 -22l-1 -4l-59 1l20 -6l-5 -5q9 -5 33 0zM252 445l-1 6l9 -1q-5 -3 -8 -5zM169 466l11 -6l-9 -5h-5 l4 1l-45 12zM471 158l-6 -2l3 -8q0 -6 -3 -15q-3 -12 -3 -16h-11q-8 1 -11 1q-9 0 -21 -6q17 -3 40 -2l-3 -18h-29l-33 2q0 2 8 6q-47 0 -74 -6q-1 12 -11 46q-7 29 -7 47v8q24 -7 69 -8q33 0 66 -1q12 -11 29 -13zM177 404l2 -54q-15 5 -33 5v0q-51 0 -47 -1q-25 4 -46 32 q16 20 45 31l-16 -1q9 7 24 25q9 -6 18 -6q5 0 12 4q-8 2 -25 6l26 3q25 0 44 -5v-12q0 -18 -4 -27zM453 76l-40 -1q-29 0 -44 4q7 0 31 2q20 1 32 0h22zM437 -2h-89l-11 49l23 5l-23 2l-3 15h117zM89 210q21 18 20 51q13 -2 24 -2q-4 8 -24 11v62h72v-108q10 -6 22 -11 q-18 -2 -45 -2v0q-51 0 -69 -1zM234 -2q-52 0 -85 25q-36 -25 -87 -25q-13 0 -35 2v133l14 -3l15 5q-14 5 -28 2v51q16 6 23 6q13 0 37 -3t35 -3l2 8l-5 1q50 -2 149 -4v-103l-7 2l-13 8q-8 0 -24 -11q11 -9 42 -8q2 -9 2 -43v-38q-21 -2 -35 -2zM663 583l-6 6l-9 -13 q-3 0 28 0q4 0 34 11q-31 3 -47 -4zM289 388l-5 -12q9 6 28 12h-23zM247 403l-8 -10l43 1q-11 3 -35 9zM374 116q8 -12 20 -12q-4 0 36 8q-24 4 -44 4h-12zM238 127l9 -8l-8 -8q10 0 27 7zM197 133q12 0 37 3q-18 5 -31 5q-21 0 -43 -12q7 -1 22 -7q-11 -4 -31 -11h17 q14 -1 32 7l-6 5l12 3q30 -6 35 -6q-10 8 -44 13zM138 113q-10 0 -42 -4q35 -8 52 -7l40 1v3q-6 1 -25 4q-15 3 -25 3z" />
<glyph unicode="N" horiz-adv-x="617" d="M350 711v72h57q23 0 63 -27q38 27 62 27h60v-73q-192 12 -242 1zM512 530q-42 7 -83 7q-3 22 -81 42v111h244v-114q-34 -6 -49 -12q-30 -12 -31 -34zM451 466l-10 5l-5 -1q12 6 27.5 7t30.5 1l-6 5q8 -1 11 -7l8 6l3 -2l2 -20q-17 6 -61 6zM474 351q-14 0 -36 4v73l17 -2 q5 0 12 4q-12 5 -29 4l-1 14l8 -1q9 0 26 3.5t26 3.5q25 0 38 -22l-14 -6q16 -4 45 -20q-34 -55 -92 -55zM38 720v53l12 1l-10 6q14 4 27 4q38 0 75 -28q11 9 21 10q32 19 66 19l13 -4q10 -27 19 -68q-162 11 -223 7zM244 699q-39 -3 -103 0q-79 3 -103 3v7zM247 535 q-4 13 -10 39l-7 14q-13 -9 -26 -17q-18 -12 -18 -23q0 -3 1 -6h-14q-19 -1 -42 9l-14 -1q-6 15 -35 27q-25 10 -44 10v97h5q9 0 26.5 3t25.5 3h176l44 -153q-10 3 -33 1q-18 -2 -35 -3zM488 210q-26 0 -46 9l-2 113q48 2 50 2l23 -2v-118q-10 -4 -25 -4zM326 352 q-46 0 -89 43l38 34q-1 5 -6 24q-4 14 -4 24q15 3 30 3l39 -1l2 -7q3 0 -55 0q15 -8 30 -8q22 -1 29 -3q1 -11 20 -25l-19 1l-21 -1q34 -8 47 -12q26 -9 42 -25q-36 -47 -83 -47zM407 220q-13 0 -36 3l-36 4q-2 8 -30 108l28 1l45 -1l37 -115h-8zM487 2q-3 1 -23 2 q-16 1 -20 8l-3 1l-4 -6l-9 -1l-7 1l11 3q-9 5 -35 6l-19 65l16 2q-5 8 -17 6l-34 111l13 3l6 -3q38 0 151 -12v-188zM179 228q-10 0 -31 1.5t-30 1.5l1 110l4 8q-13 5 -28.5 17.5t-28.5 23.5q14 17 19 23q15 14 23 16q11 16 11 27l28 2l-28 5v17q16 -6 27 -6t18 7l9 -7 q7 2 19 3v-122q-18 -3 -53 -10q43 -9 54 -8l8 -107q-9 -2 -22 -2zM260 0l-16 2q-11 2 -15 -2q-13 2 -34 10q-25 10 -33 13q-2 -1 -30 -14q-18 -9 -32 -9h-62v194q71 22 123 22q53 0 118 -22v-108l-29 1q-21 1 -41 -9q52 -2 73 0v-60l-23 -7q5 -7 23 -2v-7q-9 -2 -22 -2z M511 430l3 -9l10 9h-13zM509 416l-10 -9l14 -2l18 1zM484 136q-3 -5 -29 -6q-29 -2 -37 -5l45 -2h16l15 1z" />
<glyph unicode="O" horiz-adv-x="495" d="M432 713v1v-1zM401 745l-11 5zM444 698l-13 3zM440 683l4 2zM434 683l-7 2zM431 689l-19 3zM371 709l17 1zM382 688l11 1zM377 689h-33q4 6 19 7h11zM307 703l-8 2zM359 610h-8h8zM180 781v1v-1zM250 711v1v-1zM286 645l-8 2zM250 672v0v0zM242 664l20 1zM444 504h-64h64 zM243 672v0v0zM445 711q-9 -4 -28 -8l-4 2l9 3l-10 1l19 6q-71 3 -110 2h-63q24 -2 78 -10l12 5l20 -2q-40 -6 -53 -6q19 -11 26 -8q-1 -4 -33 -7l-40 -4l6 -5l-22 -3q13 -7 26 -9l-8 -3q20 -7 52 -7q42 1 53 -1l-7 -3h18q-16 -3 -73 -5l-5 -5l-5 2l6 5q-9 0 -26.5 3 t-26.5 3l-16 -2v-21l13 -6q9 0 22 2.5t20 2.5q10 0 21 -3l15 5l14 -5q10 3 29 6l9 -4q3 -5 27 -4q40 3 32 3h3v-122q-53 2 -77 0q0 5 1 14.5t1 14.5q0 12 -16 31t-27 19h-135q-23 0 -39.5 -18t-16.5 -40q0 -9 3 -18h-79v183q27 1 69 1q56 -2 69 -2q1 0 70 8l5 -3l15 4 q-7 3 -43 2q-6 4 -5 18q-12 1 -32 0q-24 -2 -32 -2h-78q-16 0 -35 6l2 8h9l15 2q-7 4 -20 5l45 -1q25 -1 63 4q53 6 63 6l-1 4q-89 0 -150 6q47 27 67 27h193q28 0 62.5 -24.5t33.5 -50.5v-2zM445 483q-10 -7 -26 -7q-9 0 -26 3t-25 4v13q62 -1 77 0v-13zM228 654l-6 2z M255 608l-15 3zM132 750h-54h54zM120 732l-10 1zM433 403v1v-1zM97 736v1v-1zM429 398l8 1zM414 401l15 1zM429 390v1v-1zM198 610v1v-1zM376 429v1v-1zM124 689l-17 3zM361 428v1v-1zM499 410q-24 -21 -54 -58l-18 -2l18 -2v-16l-11 -1l9 -1l2 -8l-39 -10l-8 3q1 -5 19 -7 q11 -1 23 -2l-13 -8l18 -2v-10h-37h-38v28l10 1l-10 6q16 -1 50 3q-25 9 -48 10l-2 10h12q10 -1 16 9l-9 3q-12 -3 -19 -6q-6 14 -25 28q-16 11 -31 21q17 18 34 35q25 27 20 37h77l-1 -5q0 -13 23 -30q32 -25 32 -26zM390 397l-10 1zM111 652v1v-1zM143 622l-6 2zM426 331 v1v-1zM151 608l-16 2zM109 641v1v-1zM105 616l9 4zM336 385v1v-1zM111 608h-10h10zM371 326l12 3zM385 317v1v-1zM380 308l8 1zM431 235h-6h6zM435 139l-10 2zM359 202h-2h2zM149 404v1v-1zM394 147v1v-1zM359 195l-35 3zM402 140h-15h15zM383 148l-8 2zM329 186v1v-1z M191 407l-34 -36q-20 -24 -18 -44l-77 -6q0 22 -20 42q-18 16 -36 31l56 56v47h77v-47zM313 195l-12 2zM136 364l-8 4zM319 180h-14h14zM329 138l41 1zM315 186l-34 2zM325 172h-28h28zM303 178h-16h16zM320 140v1v-1zM280 178v1v-1zM291 172l-10 1zM302 159l-10 2zM273 180 v1v-1zM261 185l6 3zM261 193l-10 4zM275 171v1v-1zM271 178h-29h29zM48 385v1v-1zM302 128v1v-1zM238 190v1v-1zM266 170l-24 5zM277 159l-21 2zM136 285l-8 2zM255 155v1v-1zM271 138l-6 3zM254 138l6 1zM445 209l-12 -9l12 2v-100q-41 0 -90 -7l6 5l-8 1l-5 -6h-45 q13 1 39 6q-14 1 -19 1q-15 0 -28 -6q-2 -6 -25 -8q-14 -1 -29 -3l-1 -9q10 -1 45 2q29 2 44 -3l1 7q39 2 115 10q-1 -52 -36 -73q-27 -16 -84 -16q-31 0 -93.5 -1t-93.5 -1q-21 0 -48.5 27t-27.5 48v61q77 2 230 11q-20 6 -23 6q-39 0 -103 -3q-83 -4 -104 -4v19 q24 1 65 -1q50 -1 65 -1q25 0 46 2l2 12h-14l-5 5l-9 -8q-20 2 -39 2q-35 0 -109 -10q0 6 -1 20.5t-1 21.5l12 1l-12 2l2 17q25 3 74 9q11 -28 43 -35q13 -2 58 -1l3 -9q2 3 4 9l7 1q7 0 16 -5q14 -6 16 -6l4 5l-17 5l11 -1q18 0 47 10q33 12 46 14l-12 3l6 19l14 3l-14 1 v26h12l-10 -2l10 -1l-7 -4q23 -1 70 -3h-4l-9 -1q1 -3 7 -5.5t6 -7.5l-21 -6l-16 5q-6 0 -22 -2q11 0 34 -4q-16 1 -27 -1l14 -3q19 0 37 7q0 -13 1 -40zM139 273q-15 -6 -38 -9q-37 -3 -39 -4v48q8 2 63 1l14 5v-41zM291 100h-10h10zM118 265v0v0zM244 139l-4 4zM252 123 l-10 3zM266 98l-26 5zM211 141v1v-1zM242 106l1 3zM139 244l-77 -5v14h41q29 -1 36 -9zM251 95h-11h11zM133 186v1v-1zM114 197v1v-1zM307 11h-13h13zM125 188l-13 1zM125 177l-6 1zM289 7v1v-1zM235 60l-8 2zM104 182v1v-1zM224 62h-2h2zM93 184l-6 4zM186 63l6 1zM221 16 v1v-1zM136 63v1v-1zM113 57l-10 3zM423 608h-3q-14 9 -34 9h-8l-6 -1l4 -8q9 3 23 2q27 -2 24 -2zM240 777l-3 9q-15 -5 -33 -9h36zM197 774q-7 0 -20.5 1.5t-20.5 1.5h-21l21 -5h21q11 0 20 2zM324 608q-7 1 -21 6l11 2l-24 2q-8 0 -30 -9zM418 359l-6 7l-8 -7h14zM418 295 q-22 7 -38 10l8 -6l-13 -4q12 -2 23 -2q10 0 20 2zM420 146h-11l-2 -8h11zM234 193h-87q19 0 33 -10l5 7l13 -6l-10 -2q4 0 18 3q11 3 19 1z" />
<glyph unicode="P" horiz-adv-x="450" d="M389 748v1v-1zM427 700v1v-1zM369 750h-6h6zM343 740l21 3zM339 733v1v-1zM317 740l7 3zM308 753v0v0zM443 620l-11 2zM279 758v1v-1zM290 752h-10h10zM302 735v-2v2zM265 766l-8 2zM418 604v1v-1zM278 744v0v0zM395 616l13 1zM273 735h15h-15zM251 752l-16 3zM259 735 l2 1zM270 726l-13 4zM362 619v1v-1zM448 716q-46 -4 -84 0q-18 -5 -45 -5q-2 0 -65 3q-7 6 -23 6q-9 0 -25.5 -2t-22.5 -2q-15 0 -22 5l-8 -9q-4 5 -24 5q-17 0 -52.5 -2.5t-53.5 -2.5h-11v75l7 1q46 0 86 -25q47 25 75 25h180q27 0 57 -23q-26 2 -40 2q-39 0 -59 -7h62 q44 0 57 -17l-61 -3q3 -5 26 -6h13q-4 0 -12.5 -1t-11.5 -1q3 -7 40 -6l7 4zM211 761l-6 3zM221 740l2 1zM244 715l2 1zM197 743h16h-16zM218 731h-4h4zM445 492l-8 2zM204 732l-8 1zM300 619l-3 6zM240 678v1v-1zM429 492l-62 2zM209 678l-10 1zM159 706l24 1zM192 675 q-7 2 -22 2l16 4zM95 762v1v-1zM122 734l-15 2zM119 702l29 7zM159 673l5 1zM215 620l-7 2zM129 691l13 1zM447 503h-80v18q0 26 -7.5 38t-31.5 24h-150v-80h-83v65q-42 26 -81 29v10l9 3l-9 1v12q0 9 2 16q12 8 100 11l-12 -2l10 -6q25 16 158 18q88 1 175 1v-158zM95 701 h15h-15zM129 652v1v-1zM86 690l5 1zM128 642l-6 1zM74 691v1v-1zM81 690l-12 -2l2 3q-13 -1 -20 1l15 2zM69 677v1v-1zM57 700l-43 4zM41 692l4 2zM26 694v-2v2zM38 681l-8 2zM14 696h8h-8zM97 609h9h-9zM15 679l6 2zM43 649v1v-1zM76 609v0v0zM58 609v0v0zM447 485 q-10 -69 -70 -96q-43 -18 -125 -18h-38q-25 1 -35 1l-2 -14l-7 -2l10 -3v-64h-87v18l13 -1h25q-2 3 -38 7l3 6q-4 5 -2 21q2 13 -8 18h56q-6 3 -39 5q-27 1 -35 10h12q-14 6 -39 21q19 18 53 57l1 22q18 5 48 5h34v-51h127q18 0 41 14.5t23 32.5q0 3 -1 7q13 0 40 2t40 2z M176 493h-80h80zM147 427l4 1zM147 417h6h-6zM150 396v1v-1zM162 373v0v0zM76 411l-6 2zM255 147h-20h20zM151 219h-10h10zM223 140v1v-1zM189 167v1v-1zM212 147h-16h16zM265 141l-6 -1l7 -13l-1 -4l-17 -1l-7 3h-50q-27 0 -82 -6t-82 -6q12 4 32 8l-10 1q-13 0 -30 -6v33 q0 16 15 15l-15 1v35q29 1 52.5 18t23.5 42q0 10 -4 20q38 -8 92 3q-5 -11 -5 -21q0 -26 31 -44q27 -15 56 -16v-61zM243 87h-2h2zM140 165h-14h14zM236 30v1v-1zM116 143h12h-12zM235 15h12h-12zM110 148l-15 2zM110 141l-8 2zM88 151v1v-1zM70 139l-8 2zM265 1h-61 q-15 6 -23 6q7 1 18.5 -1t15.5 -2l18 9q-26 10 -73 3q-6 4 -17 9q-42 -24 -60 -24h-64v97q88 18 161 18h85v-115zM54 140v1v-1zM49 139l-17 2zM124 19h-13h13zM390 727q-16 9 -25 9q-6 0 -23 -2q-14 -1 -24 0q-2 -1 -42 -10q19 3 57.5 2t56.5 1z" />
<glyph unicode="Q" horiz-adv-x="505" d="M160 735q-56 0 -87 1l16 7l-15 7q7 15 39 30t49 15h194q14 0 42 -15t38 -26q-115 -19 -276 -19zM67 656v55l14 -1q9 0 25 1t23 1l-17 5q64 5 148 5q38 0 94 7q46 6 92 13q6 -30 6 -59q-129 -8 -385 -27zM193 602l-5 1q-12 -3 -22 -8l9 -2q-8 -7 -25 -22l-17 1 q-8 0 -14 -6q9 -5 18 -6l6 2l-2 -4v-61l-16 2q-9 0 -23 -2q-17 -2 -24 -2q10 -9 26 -9q7 0 20 2t17 3l-1 -15q0 -22 19 -40l36 -28q-41 -55 -99 -55q-51 0 -83 42q60 51 60 132q0 21 -3 61.5t-3 59.5l17 -2q129 0 367 27v-113l-19 -6l18 -1v-100q13 -10 39 -31 q-15 -3 -29 -6q-15 -3 -31 2l-1 -9h-6l5 7q-26 0 -102 -15q32 31 38 39q17 24 14 51l11 3l-11 4v58l-11 15h2l1 2q-12 8 -35 23h12q0 6 -5 8q-4 1 -10 -1t-12 -3l2 7q-15 0 -44.5 -3.5t-45.5 -3.5t-40 6zM194 600l1 -2l-4 -1zM450 352v-81q-2 0 -73 -6q-1 31 3 44 q-3 9 -1 27q-4 12 -16 24l-23 23q51 11 162 22q-17 -18 -52 -53zM221 247v22h82v-9zM301 63v-3h4q9 0 33 4l-13 5q11 3 63 7q43 3 58 11l1 -6q-54 -17 -146 -18zM449 169h-99q-64 1 -65 -11q14 -2 35 -2h65q47 0 65 7v-61q-27 -7 -82 -17l7 5q-32 -7 -99 -16q6 0 15 -4l3 -1 h-1h-5v-11q-66 -10 -198 -25q-4 6 -10 16q11 3 19 7q-5 2 -18.5 2t-13.5 20v139q16 -5 88 1q8 -10 30 -14l34 -4q2 10 2 26q20 0 48 9q-8 1 27 1l7 -1v-33q45 7 48 8q27 10 26 36q48 7 63 7h10q-5 -57 -1 -84zM67 228v114l15 -2q12 -1 30 2q25 5 30 5v-111q-25 -1 -75 -8z M303 2v-78h-7l-6 7h-3q-8 0 -20 -7h-46v78h-78q-28 13 -44 22q223 21 344 39q-18 -46 -56 -57q-16 -4 -84 -4zM153 605q-8 1 -21 -3q-16 -5 -22 -5v-3q34 0 38 -2l6 9l8 4h-9zM101 603q-9 -1 -18.5 -3t-14.5 -10q27 -4 43 -4zM266 74q-23 -4 -38 -4v-3q5 0 16 -1.5t17 -1.5 l12 1zM152 99q18 -3 29 -8l13 1v3q-31 4 -42 4zM221 71l-29 6l9 -7l-2 -2h-30l17 -5l-2 -4q6 0 19 1t20 1z" />
<glyph unicode="R" horiz-adv-x="564" d="M338 780l-5 2zM331 770h7h-7zM257 786h5h-5zM244 779v-1v1zM231 779v-1v1zM438 563v-1v1zM463 708h-96q-38 0 -124.5 3.5t-128.5 3.5q-49 0 -85 -3v45q0 17 2 31l9 1q42 1 81 -25q47 25 62 25h145q135 0 135 -81zM433 563l-9 3zM218 777l-9 2zM219 705h8h-8zM461 478 q-38 -9 -71 -2l-2 -2l9 -5l-14 2v10q22 2 35 2q25 0 43 -5zM408 459l-13 3zM463 521q-8 1 -25 -37t-26 -37q-15 2 -28 84q-9 51 -40 51h-151v-45l-43 -1l-42 1q1 22 -30 36q-24 11 -49 11v109h350q86 0 84 0v-130h-16q5 -5 16 -3v-39zM422 433h-6h6zM415 424l4 1zM410 434 l-10 2zM412 421l-6 3zM402 428v0v0zM391 437v0v0zM30 701l180 4zM56 767v-1v1zM383 429l11 3zM386 434l-6 2zM402 416v-1v1zM407 407v-1v1zM42 768v-1v1zM375 430v-1v1zM197 594v-1v1zM377 414v-1v1zM420 365l-8 1zM191 579l-15 2zM332 414l22 2zM345 409h7h-7zM354 394 l-7 4zM326 418v-1v1zM315 414v-1v1zM408 316l-8 4zM138 578v-1v1zM392 318h-8h8zM398 312l-12 2zM383 312l-8 1zM388 302l-6 3zM464 213q-21 -1 -61 -3l-2 8l-11 -2l7 -5l-33 -1q0 11 1 32v31q0 39 -9 64q56 -1 82 0q1 -7 2 -21l-3 -10q0 -2 5 -50q3 -30 22 -43zM378 305v-1 v1zM306 374v-1v1zM546 136h-11h11zM397 269l7 2zM456 446l-14 -2l11 -2q-3 -5 -16 -10l7 -1q-6 -11 -14 -12q-13 -1 -17 -3h18q-12 -8 -37 -20q16 -13 39 -42q-31 -1 -93 2l-21 14h-125v-16l-51 2q-5 2 -17 1q-18 -3 -19 -3t-51 38q25 41 73 41q66 0 63 0q4 -10 17 -10 q18 0 64 1q41 1 65 1l-5 2q10 -2 27 12.5t21 25.5l11 1q17 1 28 -8q4 -9 36 -2v-10zM255 417l-15 2zM257 405h5h-5zM82 571l-3 6zM518 139l-17 3zM542 96l-19 4zM491 130l9 6zM411 217v-1v1zM169 449v-1v1zM195 420h-7h7zM192 471q-7 0 -21 -6l21 -2h-16q-11 1 -20 -5 q10 -5 36 0v-20h-17h-15l-58 1q10 15 13 28l5 2q5 0 14 -4t14 -4q12 0 23 8q-11 5 -59 4l-2 10h82v-12zM178 421h7h-7zM151 445l-7 1zM147 453l-22 7zM366 215l13 2zM483 134l-69 4zM120 464v-1v1zM457 123v-1v1zM509 70l-18 2zM479 99l-17 3zM123 445v-1v1zM389 172v-1v1z M546 144q-3 -2 -36 -11q7 -2 20 -6q-2 -5 -13 -6.5t-14 -4.5l10 -2q5 0 28 6l-5 5l10 2q0 -126 0 -125h-106q-22 0 -49.5 32t-27.5 53v51q4 0 11.5 -2t11.5 -2l11 4q-3 7 -34 2v57l18 1q15 0 44.5 -3t42.5 -3l1 6q-17 4 -30 4q17 0 54 -4q34 -3 53 -2v-52zM194 346l-32 1z M118 407v-1v1zM404 78l-17 1zM232 214q-22 4 -128 15q5 8 6 23q1 10 -1 27q-1 21 -1 26q0 34 27 34q-7 0 50 -6l9 3q3 -10 3 -59t35 -63zM380 57l13 1zM210 221l-13 2zM273 152v-1v1zM264 142l-8 2zM219 194h-23h23zM271 128l-3 2zM182 218l-11 2zM257 112h11h-11zM141 230 v-1v1zM219 143l-7 1zM233 120h-32h32zM236 96l-14 1zM270 34v-1v1zM196 93l14 3zM174 129l-20 2zM185 107h4h-4zM218 62v-1v1zM157 119v0v0zM280 113l-7 -3l7 -1v-107q-9 1 -33 5q-20 4 -32 4q-11 0 -22 -2h-4l5 6q-11 5 -24 5q-14 0 -39.5 -9t-39.5 -9h-55q1 7 8.5 9.5 t14.5 4.5l-14 4l-8 -4v64q27 2 82 7l-5 3h-78v111q4 1 35 9q21 5 34 4l21 -1l-23 -4q102 -19 175 -15q3 -9 2 -53v-28zM137 129v-1v1zM162 93l3 2zM129 129l-10 2zM130 116v-1v1zM160 88h-28h28zM181 46v-1v1zM92 134l-11 2zM59 103h11h-11zM131 19l-11 1zM84 59v-1v1z M98 13v0v0zM86 12v-1v1zM291 412l-15 4l-6 -8q7 0 21 4zM536 107q-27 5 -60 7q-8 -1 -25 -3q21 -4 42 -4h43zM259 128l-6 9q-3 -4 -28 -6q-31 -2 -33 -2l40 -1h16h11z" />
<glyph unicode="S" horiz-adv-x="476" d="M105 775q34 18 77 18q-7 0 53 -2q-43 -6 -130 -16zM302 694l-1 -10q-13 -2 -22 -7q15 -8 45 -8q19 0 57.5 3.5t57.5 3.5v-36q-10 -1 -76 -1q-48 0 -66 -19q67 1 71 2q42 2 70 8v-126h-76q4 6 17 8l-17 2q0 21 -1 32l9 1v3h-12q-24 37 -33 37h-150q-31 0 -47 -54 q-12 -5 -24 -11l19 -5l-15 -3q8 -7 22 -4v-7l-11 -2v-3q0 -7 -14 -6q8 -6 13 -6l7 4q6 -18 24 -52q-23 -5 -69 -14l6 5q-11 5 -20 3l-7 7v45q16 1 20 2q10 2 17 9q-12 0 -37 -4v17l15 5l10 -6q6 5 24 14q-7 3 -12 3q-7 0 -20 -3.5t-18 -4.5v160l243 15l2 11q-64 -1 -245 -11 q-1 -4 -1 36q0 37 104 51q68 4 136 9l2 -7h6q26 1 55 -29q3 15 2 36q4 1 13 3.5t14 2.5h50v-90q-44 -8 -137 -9zM264 449q-7 0 -19.5 -5t-18.5 -5q-10 0 -17 7l45 30l14 -28zM228 333q-14 38 -41 46q-26 2 -53 4q-34 2 -57 26q24 2 101 13q63 8 102 8q134 0 150 -68l5 -2 q4 -20 4 -38q-23 -2 -71 -13l1 19q1 21 -18 34t-41 13q-50 0 -82 -42zM63 112q63 5 131 23l-32 1q-24 1 -58 -7l-58 -14v37q-1 25 -1 38q0 39 5 65l-3 7q25 3 74 10q-2 -70 111 -70q77 0 97 9q40 17 37 82q23 3 72 14v-138q-102 -10 -129 -14q-73 -8 -129 -20q15 -2 23 -2 q11 0 96 14v-9l40 2q28 2 34 13q22 4 66 7q2 -13 2 -28q0 -48 -8 -83l-57 -9q8 -6 45 -1l-10 -7q-4 -6 -29.5 -18t-33.5 -12h-158l-67 39q-3 -14 -2 -36q-9 -3 -12 -3h-63v78q161 33 254 40l3 9q-146 -8 -257 -34v13q7 2 19 5zM277 686q-9 0 -25.5 -3t-23.5 -3v-3 q53 -4 48 -4q0 9 21 6q-12 7 -20 7zM331 119q-6 0 -17 -4v-3q16 2 32 5.5t27 12.5q-22 -1 -66 -10l1 -3q11 3 20 3zM302 183v18q-1 0 -35 -6q-18 -3 -36 0q16 -8 43 -4h1l-89 -19l48 -1q13 0 87 7l6 -5l12 9q-15 2 -37 1zM246 169l-18 -4l24 -10zM94 169v-3h53q4 5 22 10.5 t26 14.5q-16 -1 -50 -10q-39 -10 -51 -12z" />
<glyph unicode="T" horiz-adv-x="476" d="M466 786q1 -13 -3 -26l3 -17q-149 -7 -447 -32v83l4 1q55 0 84 -27q16 8 33.5 17.5t32.5 9.5h116q22 0 46 -8q31 -9 38 -24l4 -2l11 1l-9 6q35 25 69 25l18 -2v-5zM466 674q-149 -8 -447 -32v44q55 5 163 26l5 -5q19 3 55 6l-12 3q79 2 236 13v-55zM311 600l-3 -2l3 4v-2 zM466 663v-53l-3 -7l3 -94h-77v69q9 2 18 6l-12 3l9 1l10 -6l7 7q14 3 41 7q0 6 -5 8q-4 1 -10.5 -1t-11.5 -3l2 7q-16 0 -46 -4t-45 -4q-17 0 -38 9l2 -6l-5 1q-9 0 -24 -8l7 -1l-9 -11q9 3 15 3h4q8 -9 40 -6q-30 -7 -55 -26v-54h-20q-23 1 -59 -5v59q-47 34 -95 33h-12 q-1 -25 0 -78h-78v120q87 13 223 21q188 10 224 13zM337 406q-57 -53 -105 -53q-44 0 -84 42q16 15 33 21l-9 2q36 27 33 71q10 -3 26 -1q23 2 27 2q14 0 23 -7l-12 -4l13 -2q1 -23 19 -39.5t36 -31.5zM283 210q-33 -5 -85 -8l7 5l-1 133q27 2 79 11v-141zM349 151h10h-10z M363 138q0 10 -11 18l11 5l-10 5l10 1v29l-145 -52q-3 -1 -5 -2h1q14 0 43.5 5.5t44.5 5.5q24 0 41 -6q-13 0 -39 -4h3q6 0 17 -2q-15 -1 -29 1q-14 -6 -75 -9q-54 -3 -69 -1q56 -6 81 -6q38 0 65 7l8 -4q16 2 52 6h6v3zM363 0h-62q-24 0 -58 24l-18 -6q-3 -5 -34 -16l-7 1 l-4 -3h-60v115l62 -1q81 -2 181 10v-124zM203 749q-77 -6 -117 -13q27 -4 33 -4q78 0 84 17zM279 605q-18 0 -62 -12q4 0 11.5 1t10.5 1q7 0 10 -7q2 7 13 11q8 3 17 6zM227 586l-10 17q-9 -1 -19 -3t-14 -10q27 -4 43 -4z" />
<glyph unicode="U" horiz-adv-x="575" d="M145 766q-40 -6 -119 -17q-2 15 -2 28v15l28 2q61 0 93 -28zM145 766q47 27 60 27h61v-13q-47 -4 -121 -14zM24 680v55l242 32v-73q-81 -3 -242 -14zM418 694l-2 -9q-10 -3 -21 -8q16 -8 46 -8q20 0 61 3.5t61 3.5v-34q-28 -4 -107 -4q-28 0 -43 -18q91 2 150 11v-42 q-44 -3 -70 -32q0 -9 -4 -51q-2 -32 -2 -51q0 -17 56 -54l-38 -40q-20 -26 -16 -50q-25 -3 -73 -10l-2 -12q4 0 75 5v-132q-63 -9 -188 -26q4 -5 11 -5q21 0 52 6l50 10v-9q20 1 39 2q26 2 35 10v-47l1 -19q-12 -4 -19 -13l16 5q-4 -18 -17 -39q-17 -25 -31 -24 q-10 -12 -62 -12q-17 0 -60 1q-38 1 -61 1l10 3l-18 2q-18 -6 -23 -6h-46q-19 0 -45 25t-27 44q103 17 310 49l2 9l-28 1q-45 2 -116 -12q-95 -20 -115 -22l-2 1l-7 -6q-16 -1 -46 -4l3 7l8 6l-9 1q-6 40 0 52q-4 21 -3 51l1 51q25 3 74 8v-5q0 -19 10 -35t27 -18l6 -4l8 1 h133q9 0 27 8.5t41 5.5l-21 7q0 6 3 19t3 20l2 3l-3 6v54l3 3l-4 17q-5 6 -53 43q13 15 26 29q18 18 30 17q-4 40 -7 120l7 -1q2 9 2 20v5h-9q-22 0 -87 11v101q11 -3 27 -3q11 0 33.5 2t33.5 2l2 10h-96v75q11 1 34 5.5t36 4.5q28 0 50 -21q48 28 64 28h57v-90 q-29 -6 -72 -7q-37 -1 -73 -2zM202 429l1 1q-23 2 -29 2q-21 0 -54 -7q-48 -11 -53 -12l24 28q13 18 13 34h3q4 -1 20 6l-23 1q1 25 -3 73l13 2q-4 1 -44 20q-27 13 -46 12v80q81 2 242 14v-92q-90 -21 -90 -57q0 -7 4 -16l-13 -7h13v-19q-15 -2 -45 -7q9 -6 43 -1v-10 q0 -27 24 -45zM202 429l6 -4l-15 -2zM179 285q-25 -2 -75 -8v12q-1 11 7 15q-6 3 -7 35l-1 13q-32 28 -53 43q33 7 72 10l-6 -5q-3 0 113 9q-23 -25 -46 -51q-6 -8 -4 -73zM389 686q-9 1 -23 -2q-17 -4 -23 -4v-3q5 -1 19 -3q11 -2 18 -1h12q1 7 11 9v3zM481 130q5 0 -58 -8 v-3h19l-13 -4l1 -3q15 2 31 5.5t27 12.5h-7zM417 183v18l-34 -6q-19 -3 -36 0q15 -8 42 -4h2l-90 -19l51 -1q12 0 84 7l6 -5l12 9q-15 2 -37 1zM362 169l-19 -4q14 -4 25 -10zM209 170v-3h67l-10 4l23 7q13 4 22 12q-18 -1 -51.5 -10t-50.5 -10zM124 304l6 -7q3 6 12 12z M148 107q13 4 40 9l-9 -5q56 8 120 21v3q-39 -4 -77 -7q-45 -6 -74 -21zM129 136l-13 -2l23 -4l7 -7q5 1 10 5q-5 0 -13.5 4t-13.5 4zM136 112h-16v-3q3 -1 9 -3.5t9 -2.5h4v3z" />
<glyph unicode="V" horiz-adv-x="553" d="M360 732q-23 0 -44 2v55q23 1 36 1q52 0 84 -27q44 28 107 26h17v-37q-163 -20 -200 -20zM317 660v59q20 -1 22 -1q97 0 221 21v-58q-110 -13 -121 -14q-69 -7 -122 -7zM401 496q10 0 21 3q-9 3 -19 5l16 61q-18 11 -32 19h4l12 -6l7 7q14 3 41 8q0 6 -5 7 q-4 1 -10.5 -0.5t-11.5 -3.5l2 7q-12 0 -40 -4t-43 -4q-8 0 -24 3q0 36 -2 49q81 9 243 22v-69q0 -10 -26 -21l-36 -14l-14 -60q-12 -47 -21 -46q5 -7 5 -18l34 -30q-19 -2 -69 -16q-43 -12 -69 -12q-23 0 -45 18q25 19 50 37q33 26 33 49q0 5 -1 9zM6 705v84q19 1 33 1 q54 0 88 -27q34 27 88 27q14 0 33 -1v-60q-68 0 -242 -24zM8 638q-2 14 -2 32v12q32 5 95 16q43 2 128 12l-12 2l7 1l24 -1v-54q-16 -1 -240 -20zM462 375q-11 -14 -24 -46l-12 -5l10 -1l-15 -65l-7 4q-27 -5 -80 -17l32 119q35 10 108 21zM194 598q-8 0 -21 -8l8 -6 q-5 -1 -33 -19l21 -77l-4 -2q6 -5 8 -17q3 -15 7 -19q8 -11 29 -24q16 -11 33 -21q-13 -13 -26 -25q-17 -19 -13 -29q-26 0 -77 -9q-6 13 -31 29q-19 11 -37 23q38 32 38 62q0 13 -6 26q8 0 17 6l-18 1q-3 13 -19 76q-20 8 -41 16q-25 11 -25 32q0 4 2 12q80 8 242 20v-44 q-12 -3 -54 -3zM157 219l-29 111q26 3 78 10l32 -109q-27 -2 -81 -12zM372 69l-8 2q-8 0 -22 -2t-20 -3q37 -8 49 -5l-1 -11q-78 -12 -164 -20l-45 177l9 3l-4 2q-2 0 79 1l5 -18h68q9 30 29 31v0q9 -1 27 5l10 -3q1 0 30 7q-17 -62 -42 -166zM357 -1h-142l-7 22q32 0 79 7 q39 6 79 11q-3 -13 -9 -40zM391 462l20 -2q1 0 27 3q15 2 26 -3l6 14q-26 -3 -79 -12zM172 743q-16 0 -44 -4q-31 -5 -44 -5v-3q18 -3 22 -3q15 0 43 5.5t42 5.5l1 3zM257 96q18 -2 29 -8l13 1v3q-7 1 -21 2.5t-21 1.5zM326 69l-29 5l9 -7l-2 -1h-30l17 -6l-2 -4q6 0 19 1 t20 1z" />
<glyph unicode="W" horiz-adv-x="836" d="M596 714l-2 18l19 3l-19 4v48q29 2 40 2q48 0 79 -27q38 28 86 28q15 0 37 -3v-53q-80 -5 -240 -20zM594 643v48q8 0 27 4.5t29 2.5q15 3 44 10l5 -5q10 0 27 3q21 3 28 3l-11 3q31 -1 93 5v-57q-131 -5 -242 -17zM822 598l-6 1q-13 -3 -23 -7l7 -2q-6 -3 -10 -10l13 2 q-37 -16 -50 -13l-7 -7l17 -5q-3 -20 -11 -61q-15 0 -47 -8q12 -5 45 -3q-3 -12 -3 -21q0 -29 39 -54q-36 -35 -55 -59q-25 -2 -75 -7l1 3q0 11 -23 30l-32 24l48 34q31 24 26 45l9 2l-8 6l14 8h-14q11 19 11 37q0 33 -32 48q-26 12 -62 10v43h27q43 -1 107 4q103 9 108 9 v-47l-16 4zM822 598l1 -2l-4 -2zM331 690l-1 -10l-11 -1l-5 1l-1 7h16q2 7 -3.5 10.5t-12.5 2.5v81l13 2l2 -7h7q8 -1 24.5 3.5t24.5 4.5q19 0 45 -21q31 26 81 26q16 0 34 -2v-79q-144 -20 -213 -18zM162 774q22 15 57 15q16 0 37 -3q-31 -3 -94 -12zM243 696 q-40 1 -112 -6q-78 -8 -112 -9v62l244 33v-80h-20zM118 771q-34 -4 -100 -15v31q40 2 43 2q43 0 57 -18zM530 5l-21 1l-1 14l17 3l-18 3l-18 133l17 1v3l-19 1l-18 140q25 4 73 13q5 -39 20 -120h67q5 24 24 131q13 6 37 8q29 2 38 4q-6 -14 -6.5 -51t-7.5 -51 q-11 -23 -43 -21l-1 -3q1 0 40 -4l-26 -182q-15 -1 -78 -14q-49 -10 -76 -9zM217 231h-1q0 -7 11 -34h68l6.5 32.5t15.5 20.5l-9 6l22 3l-12 6l-12 -3q3 19 9 56q15 1 16 15l-13 2l4 15q0 12 -14 25q-13 10 -25 19q36 40 46 37l21 145q-13 2 -32 12l17 4l-23 2v76 q26 -4 56 -4q32 0 176 19v-45l-116 -2q-86 -4 -102 -22q21 0 74 6q48 5 74 5l70 -2v-33q-16 -6 -38 -20l14 -96q11 -46 61 -72q-16 -17 -29 -25q-15 -33 -12 -46q-24 -4 -73 -14q-2 26 -2 40q0 23 -15 115q-20 122 -20 123q-20 -121 -24 -145q-12 -83 -16 -146l-60 -8 l-2 -12q8 -1 21 0q18 2 22 2l15 -2l-18 -129q-70 -7 -159 -24q15 -3 23 -3q10 0 96 14q3 -11 38 -7l-2 -14q-17 0 -31 -6l16 -2l-7 -2q4 -6 20 -2q-1 -6 -14 -112l-167 2l6 4l-10 1l-12 88q54 10 165 23l2 9q-31 -1 -85 -8q-61 -8 -84 -10l-2 9q22 6 66 14l-25 3l-14 -6 q-7 1 -29 0l2 16q-5 2 -7 18h9q9 -1 32 8.5t29 16.5h-5q-51 -16 -57 -16l-9 1l1 3q-7 30 -4 39q-7 9 -11 52q37 9 71 11l7 -39l-10 -1l6 -6h4zM114 421q-4 21 -11 62h4q10 0 16 7q-2 6 -22 1l-4 16l7 1l9 -4q8 5 23 13l-9 4q-10 -3 -31 -7q0 33 -21.5 53t-54.5 24v80 q42 -1 122.5 5.5t119.5 6.5l-9 -10l10 -1v-81h-6q-35 0 -57 -10q-30 -14 -25 -46l-20 -3q4 -8 21 -3l1 -18l-16 2l-21 -1l-4 -4l25 -4l-13 -7l2 -6l-14 -4l7 -4l11 6q19 -5 27 -4q1 -13 2 -27t10 -22q-26 -5 -79 -15zM678 -1h-99l102 16zM200 343l6 -45q-34 -7 -71 -10 q-2 16 -3 32q-4 21 -12 28l10 10q-18 3 -60 29q-2 14 56 22q39 5 70 5q34 0 57 -18q-29 -31 -53 -53zM597 732q27 -4 34 -4q78 0 83 16q-76 -5 -117 -12zM728 590q5 -1 12 0t10 1q8 0 11 -7q2 7 11.5 10.5t18.5 6.5q-18 1 -63 -11zM729 600q-9 -2 -19 -4t-14 -10 q27 -3 42 -3zM331 180v18q-1 0 -35 -5q-18 -4 -36 -1q16 -8 43 -4h1l-89 -19l48 -1q13 0 87 8l6 -6l12 9q-15 2 -37 1zM275 166l-18 -3l24 -10z" />
<glyph unicode="X" horiz-adv-x="527" d="M339 709q-3 0 -38 5l-6 -2v73h51q13 0 34 -11.5t34 -11.5q16 0 30 16q15 5 80 7v-74q-29 0 -91 -1t-94 -1zM295 695v7h75zM505 591q-63 3 -95 -54q-32 -2 -50 -2l-34 1q5 11 16 25q-6 9 -22 16q-12 6 -25 11v101h229v-98h-19zM14 720v65h40q47 0 76 -29q40 29 60 29h53 v-72q-163 12 -167 12q-34 0 -62 -5zM223 699q-70 2 -209 3v8q106 -2 218 -11h-9zM319 472h-13h-25q7 6 27 6h10l47 -1q-13 -5 -46 -5zM194 565q8 -14 17 -26q-25 1 -49 2q-35 2 -43 11q-38 44 -105 39v93h8q9 -1 26 2.5t25 3.5h170v-100q-17 -8 -49 -25zM353 355 q-24 0 -68.5 -2.5t-65.5 -2.5q-17 0 -41 16l-38 26q9 11 53 54l-23 28q25 0 76 1l4 2l7 -5l-19 -8l15 1q10 -3 14 -9l19 4l-5 2q10 -1 26 0q18 2 25 2l16 -5l-9 1l-6 -4l24 -20l-31 1l-27 -1q22 -6 56 -6q15 0 48 -28zM341 225l-72 107l-72 -102l-48 -1l-36 2q12 18 73 105 q14 2 31 2q20 0 67 -2q44 -2 68 -1q4 -5 45 -67q29 -43 55 -57q-38 2 -111 14zM310 207l-5 -1q81 -15 219 -19q0 9 0 -187q-5 0 -17 -1t-18 -1q-17 0 -48.5 10t-48.5 10q-20 0 -41 -7l3 -5l-17 1q-26 0 -42 -6v80l13 -1q4 0 25 3q-11 8 -36 2v43l11 3l-11 4v66zM310 207 l14 3l4 -1h-2q-6 0 -16 -2zM227 87q-21 0 -39 -9q13 0 50 -1v-77l-36 -1q-34 -2 -72 24q-36 -25 -87 -25q-14 0 -29 2v200h5q20 -1 58 10t57 11q26 0 57 -4q47 -6 47 -16v-114h-11zM464 136q-4 -5 -30 -6q-29 -2 -37 -5q47 -2 46 -2h17l13 1z" />
<glyph unicode="Y" horiz-adv-x="550" d="M505 653h10h-10zM534 703q-20 -7 -61 -7q-28 0 -84 3.5t-84 3.5v73h52q24 0 63 -24q7 2 34 14q20 10 35 10h45v-73zM520 615l-13 2zM336 763v-1v1zM534 580l-19 1q-34 1 -63.5 -16t-40.5 -48h-9q-26 1 -78 1q11 14 36 40l-55 23v102l13 3q36 0 108 -1.5t108 -1.5v-103z M222 765h8h-8zM412 561l-30 3zM368 556v-1v1zM256 705l-229 5v66h45q26 0 70 -24q43 26 102 24h12v-71zM356 469h22h-22zM112 701h7h-7zM294 472l88 4zM342 438l-6 1zM103 699l-75 2zM329 430v-1v1zM345 406v-1v1zM299 456l-13 3zM256 581l-48 -23l27 -36q-11 1 -29 -1 q-23 -2 -29 -2q-23 0 -63 32t-87 29v110h229v-109zM355 390v-1v1zM355 392l-6 3zM335 410v0v0zM305 426l12 3zM322 415v-1v1zM306 421l4 1zM301 431l-9 3zM274 454v0v0zM321 413l-15 1zM148 574l3 2zM303 419l-6 2zM293 426v-1v1zM281 435v-1v1zM258 458l-13 3zM297 414v-1 v1zM322 387v-1v1zM274 426l11 3zM326 381v-1v1zM298 405v-1v1zM243 454v0v0zM263 433v-1v1zM266 428v-1v1zM374 394q-27 -42 -91 -42q-73 0 -92 31q10 15 34 32q-13 8 -28 30q-11 17 -22 35q15 -2 40 0q32 3 40 3l19 -15q-5 0 -19.5 1t-22.5 1q7 0 -41 -5q90 -17 172 -14 q-2 -5 -7.5 -6.5t-11.5 -2.5l12 -3q-4 -7 -12 -20zM107 573l6 2zM294 392l-8 3zM90 590v-1v1zM266 412v-1v1zM311 362l-8 2zM224 411l22 2zM230 422l-12 1zM246 393l-10 3zM299 314l-9 4zM283 315l-8 1zM290 310l-13 3zM239 344l3 2zM267 311h7h-7zM280 301l-6 3zM270 304 v-1v1zM289 268l7 1zM258 306h-9h9zM349 214q-13 -5 -32 -2q-25 4 -32 3h-4l8 -5q-11 0 -40 2q-26 1 -41 0q4 -1 7 -1q16 0 19 37q2 24 4 49q-3 9 -3 23v14h90v-109zM382 130l10 6zM302 217v-1v1zM390 99v-1v1zM258 214l13 3zM374 134l-69 4zM348 123v-1v1zM371 100l-17 3z M281 171v-1v1zM260 176l-6 3zM289 138l-35 2zM228 176l-11 3zM397 108h-1q-5 0 -13.5 3t-13.5 3q-4 0 -12.5 -1t-13.5 -1q9 -8 54 -6v-32l-14 -1l14 -5v-65h-48q-27 0 -68 25q-29 -18 -45 -22t-51 -4q-15 0 -24 3v188l16 -1l30 1l-7 7l8 2l2 -7q15 2 37 2q-16 0 112 -5l1 6 q-17 3 -30 3l15 1q10 1 26 -2q20 -5 26 -5v-53l-7 -1l7 -3v-30zM192 178v-1v1zM296 78l-17 1zM272 58l13 2zM166 152v-1v1zM248 57l-12 3zM226 78l-18 1zM167 111l6 1zM228 57l-22 3z" />
<glyph unicode="Z" horiz-adv-x="470" d="M380 763l-8 2zM410 689v-1v1zM374 690l-5 2zM365 700l-11 1zM437 580h-8h8zM367 584l14 2zM412 548h-8h8zM281 646h10h-10zM313 604v-1v1zM324 583v-1v1zM389 527l-23 1zM375 522v-1v1zM355 538l-6 3zM366 522v-1v1zM436 586q2 0 -51 0l20 -4q8 -6 27 -6q-3 -14 -27 -14 q-17 1 -35 2h-3l-2 -16v-8l13 -3l13 2h12q-6 -11 -27 -22l9 -1q-12 -17 -52 -20q-30 0 -60 -1l66 81h-218v-26l-7 -1l7 -1v-41q-49 7 -78 7v169q28 1 76 -1q54 -2 76 -2h100q23 0 69 3l2 10q-7 1 -75 1h-60q-16 0 -49 3.5t-50 3.5q-26 0 -88 -7v88l22 1q30 2 67 -26 q50 30 108 30q56 0 106 -28q33 26 78 24l11 -1v-61q13 1 -57 1q-10 0 -14 -10q42 -10 69 -2l2 -14q-18 -2 -60 -1q9 -11 36 -11l16 2l-14 2l13 2l9 -2v-102zM280 584h-16h16zM237 584l-9 3zM119 653h9h-9zM331 417h34h-34zM172 581v-1v1zM346 472q-1 -1 -7.5 -11t-6.5 -13 q0 -2 1 -3q-16 0 -48 3.5t-48 3.5q6 7 17 20h92zM134 615l-13 2zM354 385v-1v1zM338 397v0v0zM336 385v-1v1zM306 414v-1v1zM326 379l-10 2zM302 396v-1v1zM325 358v-1v1zM307 378l-10 2zM447 243q-13 -2 -18 -2q-11 0 -31 1t-31 1v48h80v-48zM263 398h15h-15zM281 381v0v0z M299 360v-1v1zM284 351v-1v1zM416 218v-1v1zM198 429l-6 3zM265 352h15h-15zM401 222h-8h8zM388 211h18h-18zM203 420l-51 2zM377 219v-1v1zM413 180v-1v1zM424 171l-11 1zM160 430v-1v1zM171 413l-10 1zM155 429l-13 3zM417 166l-22 6zM174 390v-1v1zM378 174h-10h10z M181 366v-1v1zM164 386l-8 2zM392 401l-54 -54h-89l-35 -39l-3 9l-21 1l-35 -1l8 -5q4 -9 37 -2l-7 -2l10 -9l4 3h5q-18 -28 -35 -56q-25 -36 -51 -36q-8 0 -41 2q-26 1 -42 0l44 56q32 40 49 42l-11 3q7 8 27 33q-2 1 -56 44l22 6l-12 1q32 48 77 48l77 -1q-19 -1 -53 -9 l14 -1q12 0 34.5 2.5t34.5 2.5h53zM220 319v-1v1zM122 397v0v0zM324 198l-24 3zM340 144l25 2zM321 157l-8 3zM280 199l-29 2zM137 307v-1v1zM237 195h5h-5zM389 43l-14 1zM317 112l-9 1zM324 117h-52h52zM271 144h-19h19zM242 144v0v0zM275 111v-1v1zM233 144v0v0zM343 34 v-1v1zM340 39l-7 1zM223 144l-10 1zM447 3q-11 -3 -22 -3q-33 0 -66 26q-58 -32 -128 -32q-69 0 -107 30q-34 -26 -75 -25h-16v98h14l-14 4l6 6l-7 9l14 5l-7 4q8 3 19 1q16 -4 19 -4l9 3q-8 9 -28 9v0q-14 0 -19 2q13 0 38 2q-10 7 -45 4v11q0 12 2 42q19 0 63 2q40 2 63 2 t67 -4t65 -4q3 -8 23 -15q17 -6 27 -6q24 0 24 20v4q-17 3 -27 4q9 3 25 -1q1 1 5 30q26 2 78 4v-228zM216 116l-8 3zM139 183h-15h15zM171 118l-24 1zM138 121v-1v1zM144 99v-1v1zM156 56h42h-42zM134 94l-6 1zM136 77l-8 1zM50 99l4 1zM75 82l-13 1zM46 91v-1v1zM322 422 q-33 4 -59 -3q8 0 28 1.5t31 1.5zM285 369q-78 14 -135 10l-13 -1q9 0 30 -5q18 -4 29 -3l-4 -5q10 1 33.5 4t35.5 3q13 0 24 -3zM151 387h-13l-2 -6q5 3 15 6zM351 156q-6 4 -21 9l-3 -9q7 2 24 0zM269 115q-19 4 -33 3h-11q6 -9 17 -9zM328 72q-23 3 -166 4l-18 1l17 2 q-7 6 -40 8q-39 3 -44 5l22 10l8 -4q87 -4 79 -4q36 0 58 10l-9 -6q15 -5 85 -7q-37 -2 -111 -7q12 -3 119 -12zM112 121l-19 6l5 -5l-5 -5h8q7 0 11 4z" />
<glyph unicode="\" horiz-adv-x="327" />
<glyph unicode="`" />
<glyph unicode="a" />
<glyph unicode="b" />
<glyph unicode="c" />
<glyph unicode="d" />
<glyph unicode="e" />
<glyph unicode="f" />
<glyph unicode="g" />
<glyph unicode="h" />
<glyph unicode="i" />
<glyph unicode="j" />
<glyph unicode="k" />
<glyph unicode="l" />
<glyph unicode="m" />
<glyph unicode="n" />
<glyph unicode="o" />
<glyph unicode="p" />
<glyph unicode="q" />
<glyph unicode="r" />
<glyph unicode="s" />
<glyph unicode="t" />
<glyph unicode="u" />
<glyph unicode="v" />
<glyph unicode="w" />
<glyph unicode="x" />
<glyph unicode="y" />
<glyph unicode="z" />
<glyph unicode="{" />
<glyph unicode="|" />
<glyph unicode="}" />
<glyph unicode="~" />
<glyph unicode="&#xa0;" />
<glyph unicode="&#xa1;" />
<glyph unicode="&#xa2;" />
<glyph unicode="&#xa3;" />
<glyph unicode="&#xa5;" />
<glyph unicode="&#xa7;" />
<glyph unicode="&#xa8;" />
<glyph unicode="&#xa9;" />
<glyph unicode="&#xaa;" />
<glyph unicode="&#xab;" />
<glyph unicode="&#xac;" />
<glyph unicode="&#xae;" />
<glyph unicode="&#xb0;" />
<glyph unicode="&#xb1;" />
<glyph unicode="&#xb4;" />
<glyph unicode="&#xb5;" />
<glyph unicode="&#xb6;" />
<glyph unicode="&#xba;" />
<glyph unicode="&#xbb;" />
<glyph unicode="&#xbf;" />
<glyph unicode="&#xc0;" />
<glyph unicode="&#xc3;" />
<glyph unicode="&#xc4;" />
<glyph unicode="&#xc5;" />
<glyph unicode="&#xc6;" />
<glyph unicode="&#xc7;" />
<glyph unicode="&#xc9;" />
<glyph unicode="&#xd1;" />
<glyph unicode="&#xd5;" />
<glyph unicode="&#xd6;" />
<glyph unicode="&#xd8;" />
<glyph unicode="&#xdc;" />
<glyph unicode="&#xdf;" />
<glyph unicode="&#xe0;" />
<glyph unicode="&#xe1;" />
<glyph unicode="&#xe2;" />
<glyph unicode="&#xe3;" />
<glyph unicode="&#xe4;" />
<glyph unicode="&#xe5;" />
<glyph unicode="&#xe6;" />
<glyph unicode="&#xe7;" />
<glyph unicode="&#xe8;" />
<glyph unicode="&#xe9;" />
<glyph unicode="&#xea;" />
<glyph unicode="&#xeb;" />
<glyph unicode="&#xec;" />
<glyph unicode="&#xed;" />
<glyph unicode="&#xee;" />
<glyph unicode="&#xef;" />
<glyph unicode="&#xf1;" />
<glyph unicode="&#xf2;" />
<glyph unicode="&#xf3;" />
<glyph unicode="&#xf4;" />
<glyph unicode="&#xf5;" />
<glyph unicode="&#xf6;" />
<glyph unicode="&#xf8;" />
<glyph unicode="&#xf9;" />
<glyph unicode="&#xfa;" />
<glyph unicode="&#xfb;" />
<glyph unicode="&#xfc;" />
<glyph unicode="&#x152;" />
<glyph unicode="&#x153;" />
<glyph unicode="&#x192;" />
<glyph unicode="&#x3a9;" />
<glyph unicode="&#x3c0;" />
<glyph unicode="&#x2013;" />
<glyph unicode="&#x2014;" />
<glyph unicode="&#x2018;" />
<glyph unicode="&#x2019;" />
<glyph unicode="&#x201c;" />
<glyph unicode="&#x201d;" />
<glyph unicode="&#x2020;" />
<glyph unicode="&#x2022;" />
<glyph unicode="&#x2026;" />
<glyph unicode="&#x2122;" />
<glyph unicode="&#x2202;" />
<glyph unicode="&#x2206;" />
<glyph unicode="&#x220f;" />
<glyph unicode="&#x2211;" />
<glyph unicode="&#x221a;" />
<glyph unicode="&#x221e;" />
<glyph unicode="&#x222b;" />
<glyph unicode="&#x2248;" />
<glyph unicode="&#x2260;" />
<glyph unicode="&#x2264;" />
<glyph unicode="&#x2265;" />
<glyph unicode="&#x25fc;" horiz-adv-x="500" d="M0 0v0v0v0v0z" />
<glyph />
</font>
</defs>
</svg>
